<?xml version="1.0" standalone="no"?>
<!DOCTYPE svg PUBLIC "-//W3C//DTD SVG 1.1//EN" "http://www.w3.org/Graphics/SVG/1.1/DTD/svg11.dtd" >
<svg xmlns="http://www.w3.org/2000/svg" xmlns:xlink="http://www.w3.org/1999/xlink" version="1.1">
<metadata></metadata>
<defs>
<font id="itc_eras_stdmedium" horiz-adv-x="1202" >
<font-face units-per-em="2048" ascent="1366" descent="-682" />
<missing-glyph horiz-adv-x="600" />
<glyph unicode="&#xfb01;" horiz-adv-x="1085" d="M88 887l6 127h131q0 52 1 86.5t5 75.5t13 67.5t23.5 55.5t37 46t53 32t73 21.5t95.5 6.5q82 0 195 -25l8 -131q-100 29 -188 29q-26 0 -47.5 -5t-37 -11.5t-28 -20.5t-20.5 -25.5t-13 -33t-8 -36t-4.5 -42t-1.5 -43v-47.5h278l-8 -127h-270q-3 -180 -13.5 -454 t-11.5 -433h-182q18 264 39 887h-125zM762 0q39 485 45 1014h182q-36 -485 -39 -1014h-188zM807 1225l4 141h193l-5 -141h-192z" />
<glyph unicode="&#xfb02;" horiz-adv-x="1085" d="M88 887l6 127h131q0 52 1 86.5t5 75.5t13 67.5t23.5 55.5t37 46t53 32t73 21.5t95.5 6.5q82 0 195 -25l8 -131q-100 29 -188 29q-26 0 -47.5 -5t-37 -11.5t-28 -20.5t-20.5 -25.5t-13 -33t-8 -36t-4.5 -42t-1.5 -43v-47.5h278l-8 -127h-270q-3 -180 -13.5 -454 t-11.5 -433h-182q18 264 39 887h-125zM762 0q46 673 61 1366h183q-37 -500 -60 -1366h-184z" />
<glyph horiz-adv-x="0" />
<glyph horiz-adv-x="682" />
<glyph unicode=" "  horiz-adv-x="600" />
<glyph unicode="&#x09;" horiz-adv-x="600" />
<glyph unicode="&#xa0;" horiz-adv-x="600" />
<glyph unicode="!" horiz-adv-x="485" d="M154 0l8 186h194l-10 -186h-192zM180 301q3 97 11 330t12 404.5t4 330.5h190q-8 -105 -59 -1065h-158z" />
<glyph unicode="&#x22;" horiz-adv-x="729" d="M168 1030q12 170 12 336h158q-12 -170 -12 -336h-158zM477 1030q12 169 12 336h158q-12 -169 -12 -336h-158z" />
<glyph unicode="#" d="M70 362l34 138h201l76 366h-186l32 138h181q55 289 67 362h152q-17 -71 -45.5 -203t-34.5 -159h264q63 329 68 362h151q-17 -71 -45.5 -203t-34.5 -159h207l-33 -138h-200l-76 -366h186l-35 -138h-180q-55 -289 -67 -362h-152q17 71 45.5 203t34.5 159h-264 q-63 -329 -68 -362h-151q17 69 43.5 196t35.5 166h-206zM444 500h265l75 366h-264z" />
<glyph unicode="$" d="M221 233q181 -96 309 -96q103 0 175.5 52.5t72.5 146.5q0 48 -28 97t-73 93t-99.5 90t-109 95.5t-99.5 101t-73 115.5t-28 131q0 127 91.5 210t222.5 97v176h170q-3 -14 -7 -85.5t-4 -90.5q92 -5 207 -39l13 -160q-138 62 -289 62q-79 0 -141 -38.5t-62 -109.5 q0 -55 28 -111t73 -104t99.5 -97t109 -99t99.5 -100.5t73 -110.5t28 -121q0 -129 -84.5 -215.5t-216.5 -112.5v-188h-168q1 16 4.5 85t3.5 93q-133 0 -289 66z" />
<glyph unicode="%" horiz-adv-x="1734" d="M129 889q0 56 6 110t19 112.5t37.5 106.5t59 87.5t86.5 61.5t116 22q80 0 138 -35t88.5 -94.5t44 -125t13.5 -141.5q0 -56 -6.5 -110t-20.5 -109.5t-39 -102t-59 -83.5t-84 -57.5t-110 -20.5q-79 0 -137 32t-90 87t-47 120t-15 140zM242 883q0 -48 8 -93.5t27 -91.5 t56.5 -74t88.5 -28t89.5 30.5t59.5 74.5t34 103t16.5 105t3.5 92q0 48 -7.5 94.5t-25 96.5t-54 80.5t-87.5 30.5q-53 0 -93 -31.5t-61.5 -77t-34.5 -107t-16.5 -109t-3.5 -95.5zM430 0q604 1010 807 1366h123q-516 -860 -803 -1366h-127zM1055 356q0 69 7.5 133t29.5 133 t57 119t94 82.5t135 32.5q64 0 115 -23.5t82 -61.5t51.5 -91t28.5 -106.5t8 -112.5q0 -68 -9 -132.5t-32 -129.5t-58 -113t-92 -78.5t-129 -30.5q-79 0 -137 32t-90 87t-46.5 119.5t-14.5 140.5zM1167 350q0 -37 4.5 -73.5t17.5 -76t32.5 -69t52 -49t74.5 -19.5 q51 0 89.5 31t59 75t33.5 103t16.5 105t3.5 92q0 48 -7.5 94.5t-25 96t-54 80t-87.5 30.5q-53 0 -93 -31.5t-61.5 -77t-34.5 -107t-16.5 -109t-3.5 -95.5z" />
<glyph unicode="&#x26;" horiz-adv-x="1409" d="M139 344q0 37 7 72t16 62.5t28.5 56t34.5 48.5t44 44.5t47.5 39t55 37.5t55 34t58.5 34q-58 81 -90.5 151.5t-32.5 147.5q0 99 55 173t138.5 109.5t179.5 35.5q118 0 256 -41l6 -146q-131 60 -231 60q-89 0 -159 -60.5t-70 -146.5q0 -41 17.5 -90.5t41.5 -93t68.5 -101.5 t76.5 -96.5t89.5 -98t84.5 -86.5t84 -81.5t66 -63.5q46 93 53 262h158q-3 -221 -105 -383l236 -223h-209l-145 135q-161 -158 -428 -158q-129 0 -226 32t-152 86t-81.5 116.5t-26.5 132.5zM303 356q0 -64 28 -113.5t75 -79t105 -44.5t122 -15q214 0 330 132 q-247 239 -402 426q-117 -72 -161 -113q-97 -88 -97 -193z" />
<glyph unicode="'" horiz-adv-x="419" d="M168 1030q12 170 12 336h158q-12 -170 -12 -336h-158z" />
<glyph unicode="(" horiz-adv-x="624" d="M229 305q0 477 193 1061h141q-170 -539 -170 -1104q0 -369 78 -688h-141q-101 411 -101 731z" />
<glyph unicode=")" horiz-adv-x="624" d="M113 -426q170 491 170 1077q0 327 -74 715h141q96 -443 96 -772q0 -491 -192 -1020h-141z" />
<glyph unicode="*" horiz-adv-x="1093" d="M244 1081q25 48 47 107l262 -113l-2 291q8 0 26 -1t27 -1q10 0 31 1t31 1l-35 -291l274 107q5 -18 16.5 -53t16.5 -52l-281 -76l177 -219q-87 -65 -95 -71l-155 245l-183 -245q-33 31 -84 71l199 222z" />
<glyph unicode="+" d="M94 424l6 164h424q13 229 13 426h170q-12 -162 -19 -426h424l-6 -164h-424q-12 -212 -12 -424h-170q10 140 18 424h-424z" />
<glyph unicode="," horiz-adv-x="600" d="M68 -219l125 371h217l-220 -371h-122z" />
<glyph unicode="-" horiz-adv-x="509" d="M27 444l6 138h504l-7 -138h-503z" />
<glyph unicode="." horiz-adv-x="600" d="M201 0l8 186h194l-10 -186h-192z" />
<glyph unicode="/" horiz-adv-x="829" d="M10 0q242 438 717 1366h184q-643 -1217 -716 -1366h-185z" />
<glyph unicode="0" d="M141 586q0 387 136.5 595t381.5 208q105 0 187 -36.5t133 -96t84 -142.5t46 -169t13 -183q0 -68 -5.5 -135.5t-21 -147t-40 -149t-66 -136t-94.5 -113.5t-129 -75.5t-168 -28.5q-101 0 -181 35t-130.5 93t-84.5 138.5t-47.5 165t-13.5 177.5zM322 580q0 -93 13.5 -168.5 t33.5 -124t48.5 -84.5t54 -54.5t54.5 -29t46 -13t32 -2.5q61 0 111.5 26t84.5 67.5t60.5 100t41.5 117.5t24.5 126.5t12.5 121t3 105.5q0 248 -75.5 371t-200.5 123q-64 0 -116.5 -26.5t-87 -69t-61 -103t-41.5 -120t-24 -130t-11.5 -124t-2.5 -109.5z" />
<glyph unicode="1" d="M410 1096l6 166q13 8 40.5 24t44 25.5t39 25t40.5 29.5h178q-56 -807 -56 -1366h-196q34 421 53 1194z" />
<glyph unicode="2" d="M135 0l4 139q48 50 142 145t149 152.5t133.5 141.5t125 142.5t93.5 124.5t68.5 119t21.5 95q0 45 -19 81.5t-49.5 58.5t-71 37t-79.5 20.5t-80 5.5q-132 0 -366 -60l24 146q199 41 398 41q80 0 153 -15t141 -47.5t109 -94.5t41 -147q0 -136 -155.5 -344.5t-557.5 -613.5 h195q313 0 469 12l-8 -139h-881z" />
<glyph unicode="3" d="M121 190q195 -75 371 -75q78 0 144 16.5t118.5 50t82 90t29.5 131.5q0 244 -368 244q-72 0 -142 -6l9 141q44 -8 110 -8q99 0 174 25t115 65.5t59 84t19 87.5q0 52 -17 92t-44.5 65t-67 41t-81.5 22t-91 6q-168 0 -316 -45l25 141q198 31 311 31q481 0 481 -328 q0 -270 -292 -350v-4q137 -8 221 -90.5t84 -227.5q0 -61 -18 -118.5t-59.5 -111.5t-104 -94t-158 -64t-213.5 -24q-167 0 -367 52z" />
<glyph unicode="4" d="M121 467l6 156q14 18 89.5 118t98 130.5t85 114.5t96.5 132t82.5 117t89.5 131h243q-27 -429 -37 -772h228l-4 -127h-230q-10 -149 -10 -467h-190q14 157 26 467h-573zM268 594h445q20 375 20 637l-4 -4z" />
<glyph unicode="5" d="M166 166q169 -51 295 -51q89 0 161.5 21.5t118 55.5t76 78t43 86.5t12.5 83.5q0 254 -358 254q-117 0 -301 -30l63 702h779l-6 -141q-133 14 -406 14h-194l-43 -453q92 15 225 15q223 0 332.5 -99t109.5 -253q0 -94 -33.5 -172.5t-90.5 -133t-132.5 -92.5t-158 -56 t-169.5 -18q-153 0 -309 39z" />
<glyph unicode="6" d="M139 389q0 73 17 152.5t38.5 145t65.5 150.5t74.5 138.5t90.5 141.5t87 125.5t90 123.5h229q-87 -101 -166 -208t-162.5 -240.5t-133.5 -270.5t-50 -248q0 -130 75 -212.5t204 -82.5q143 0 231.5 87t88.5 231q0 115 -66 187.5t-182 72.5q-62 0 -193 -25l74 134 q92 18 151 18q181 0 288.5 -97t107.5 -276q0 -54 -12.5 -110.5t-47 -120.5t-87.5 -113.5t-143 -82t-204 -32.5q-131 0 -234.5 45t-167 139.5t-63.5 227.5z" />
<glyph unicode="7" d="M178 1219l8 147h861l-7 -149q-42 -88 -141.5 -293.5t-154.5 -320.5t-133.5 -286.5t-139.5 -316.5h-225l600 1229h-449q-151 0 -219 -10z" />
<glyph unicode="8" d="M121 352q0 131 80 221.5t207 122.5v2q-100 34 -157.5 112.5t-57.5 188.5q0 97 39.5 173.5t106.5 122.5t150 70t175 24q84 0 157 -21t131.5 -62t92.5 -109.5t34 -156.5q0 -242 -237 -338v-4q118 -24 188 -101t70 -200q0 -87 -27.5 -158t-75 -119t-113 -81t-139 -47.5 t-155.5 -14.5q-94 0 -175.5 21t-148.5 64t-106 117.5t-39 172.5zM301 367q0 -129 86 -196t227 -67q133 0 219.5 82t86.5 215q0 63 -24.5 109.5t-66.5 73t-93 39t-111 12.5q-66 0 -122.5 -15t-102.5 -46t-72.5 -84t-26.5 -123zM360 985q0 -114 75.5 -174.5t191.5 -60.5 q121 0 202.5 76.5t81.5 197.5q0 115 -73.5 176.5t-192.5 61.5q-125 0 -205 -76.5t-80 -200.5z" />
<glyph unicode="9" d="M141 934q0 142 68.5 247t181 156.5t252.5 51.5q206 0 332.5 -108t126.5 -312q0 -48 -8.5 -100.5t-20 -98.5t-36 -105.5t-42 -100.5t-53 -104.5t-54.5 -97t-61.5 -99.5t-58.5 -91t-60.5 -91t-54.5 -81h-233q178 241 238 330q264 395 264 624q0 139 -76 223.5t-213 84.5 q-135 0 -223 -85t-88 -219q0 -130 77.5 -193t212.5 -63q69 0 179 31l-76 -139q-97 -19 -156 -19q-87 0 -161.5 21.5t-132.5 64t-91 112.5t-33 161z" />
<glyph unicode=":" horiz-adv-x="600" d="M201 0l8 186h194l-10 -186h-192zM236 827l8 187h194l-10 -187h-192z" />
<glyph unicode=";" horiz-adv-x="600" d="M68 -219l125 371h217l-220 -371h-122zM236 827l8 187h194l-10 -187h-192z" />
<glyph unicode="&#x3c;" d="M94 410l8 192q642 268 1028 440l-8 -194q-337 -128 -862 -342q537 -225 836 -342l-6 -195q-443 203 -996 441z" />
<glyph unicode="=" d="M88 217l6 164h1012l-6 -164h-1012zM104 631l7 164h1011l-6 -164h-1012z" />
<glyph unicode="&#x3e;" d="M86 -31l8 195q281 106 864 342q-523 219 -837 342l8 194q453 -208 993 -440l-6 -192q-540 -224 -1030 -441z" />
<glyph unicode="?" horiz-adv-x="954" d="M94 1206l27 152q219 31 340 31q53 0 102 -5t102 -17t96.5 -34.5t79 -54.5t55 -80t19.5 -108q0 -51 -19 -103.5t-57.5 -105t-67.5 -86.5t-77 -84q-49 -51 -64.5 -67t-42 -52.5t-31.5 -52t-16 -61t-13.5 -84.5t-8.5 -118h-162q6 134 9 183.5t24 109t43 85.5t88 99 q11 13 17 19q6 7 36.5 40t43 48t37.5 47.5t37 54t22 51t10 54.5q0 56 -28 96.5t-75.5 60.5t-95.5 29t-100 9q-120 0 -330 -56zM330 0l8 186h194l-10 -186h-192z" />
<glyph unicode="@" horiz-adv-x="1628" d="M90 662q0 154 52 286.5t147 230.5t237.5 154t315.5 56q170 0 306.5 -54t220 -143.5t127.5 -198t44 -225.5q0 -96 -39 -173t-93 -119.5t-116.5 -71t-104 -37.5t-61.5 -9h-143q13 126 21 416q-26 -23 -101.5 -47t-146 -42t-127 -54.5t-56.5 -85.5t45.5 -72.5t114.5 -23.5 q81 0 170 26l-29 -115q-119 -18 -186 -18q-132 0 -200 51.5t-68 163.5q0 60 32.5 104t85 69.5t115.5 44t126 33t115.5 30.5t85 43t32.5 65q0 44 -59 63t-132 19q-158 0 -305 -63l31 131q140 39 317 39q164 0 231.5 -50t67.5 -147q0 -30 -9 -209.5t-9 -263.5q25 0 53.5 7.5 t63 28.5t61.5 53.5t45 88t18 125.5q0 93 -37 183.5t-104.5 164.5t-174 120t-232.5 46q-172 0 -308 -82t-211 -223t-75 -315q0 -117 37 -221t105 -184t172.5 -126.5t232.5 -46.5q309 0 497 264h164q-96 -187 -270 -278t-396 -93q-138 0 -253 36t-196 99t-137.5 149.5 t-83 187.5t-26.5 213z" />
<glyph unicode="A" horiz-adv-x="1267" d="M-90 0q388 733 700 1366h234q54 -160 124.5 -357t111 -309t137.5 -374t120 -326h-202q-64 218 -199 575h-541l-276 -575h-209zM451 709h448l-184 522z" />
<glyph unicode="B" horiz-adv-x="1218" d="M156 0q28 267 40.5 705.5t12.5 660.5h561q56 0 104 -7t100 -28t88 -54.5t59.5 -91.5t23.5 -134q0 -124 -69.5 -213t-188.5 -125v-4q134 -30 206 -113t72 -219q0 -74 -21.5 -134t-54.5 -98.5t-81.5 -67t-93 -43t-100 -22.5t-91 -10t-76.5 -2h-491zM348 127h307 q40 0 79.5 6t85 24.5t79 47t56 78.5t22.5 114q0 110 -71 177t-210 67h-329zM373 768h250q70 0 127 13.5t105 43t74.5 83t26.5 126.5q0 60 -20 101.5t-57.5 63.5t-81.5 31t-103 9h-305z" />
<glyph unicode="C" horiz-adv-x="1284" d="M129 645q0 351 210 547.5t564 196.5q153 0 332 -37l10 -158q-188 57 -334 57q-268 0 -431 -162t-163 -430q0 -250 144.5 -397t394.5 -147q172 0 371 61l-25 -158q-209 -41 -352 -41q-210 0 -371.5 75t-255.5 227.5t-94 365.5z" />
<glyph unicode="D" horiz-adv-x="1495" d="M156 0q53 648 59 1366h592q135 0 242.5 -30t181.5 -83.5t123 -131.5t71.5 -172t22.5 -206q0 -118 -25 -223t-84.5 -201.5t-148 -166t-225 -111t-306.5 -41.5h-503zM348 133h295q85 0 158.5 12.5t145 40t127 76t98 116.5t65.5 165.5t23 218.5q0 111 -30 197.5t-74.5 137 t-104.5 82.5t-113 43t-107 11h-436z" />
<glyph unicode="E" horiz-adv-x="1150" d="M156 0q48 658 57 1366h885l-8 -141q-129 8 -388 8h-305l-18 -473h625l-9 -133h-622l-21 -494h215q290 0 482 12l-9 -145h-884z" />
<glyph unicode="F" horiz-adv-x="1089" d="M156 0q13 153 31 622t18 744h844l-7 -143q-165 10 -202 10h-451l-16 -473h588l-5 -139q-115 6 -344 6h-243q-15 -356 -15 -627h-198z" />
<glyph unicode="G" horiz-adv-x="1519" d="M129 639q0 65 10.5 131t36.5 141t66.5 142t105.5 129.5t147.5 107.5t199 72t253.5 27q201 0 428 -54l10 -161q-238 77 -430 77q-155 0 -278 -48t-201 -131.5t-119 -192.5t-41 -234q0 -265 148 -397.5t412 -132.5q173 0 348 51l18 467h-309l6 133h490q-21 -283 -31 -723 q-324 -66 -520 -66q-130 0 -242.5 24t-206.5 76t-160.5 128.5t-103.5 187t-37 246.5z" />
<glyph unicode="H" horiz-adv-x="1499" d="M156 0q53 832 53 1366h197q-22 -431 -27 -584h811q18 322 18 584h197q-42 -707 -53 -1366h-201q19 253 33 649h-811q-17 -506 -19 -649h-198z" />
<glyph unicode="I" horiz-adv-x="499" d="M156 0q17 300 25 451t17 416t9 499h199q-14 -211 -24 -477t-14.5 -412t-11.5 -477h-200z" />
<glyph unicode="J" horiz-adv-x="794" d="M-74 170q183 -55 287 -55q86 0 157.5 44.5t94.5 135.5q15 60 24.5 239t13.5 348t9 484h199q-21 -263 -47 -944q-6 -135 -27 -204q-77 -241 -406 -241q-114 0 -292 37z" />
<glyph unicode="K" horiz-adv-x="1161" d="M156 0q20 269 36.5 689.5t16.5 676.5h199q-28 -483 -54 -1366h-198zM391 723q385 432 551 643h225l-571 -637q174 -219 606 -729h-239q-63 88 -143 191t-133 169t-155.5 191t-140.5 172z" />
<glyph unicode="L" horiz-adv-x="970" d="M156 0q30 339 42 636t17 730h201q-40 -714 -58 -1233h363q170 0 293 6l-8 -139h-850z" />
<glyph unicode="M" horiz-adv-x="1720" d="M139 0q46 404 113 1366h260q29 -110 159 -494t214 -655h4q57 145 240 566t243 583h264q-20 -593 -20 -1067q0 -99 4 -299h-180q24 854 24 1188h-4l-493 -1188h-189l-385 1180h-4q-61 -676 -78 -1180h-172z" />
<glyph unicode="N" horiz-adv-x="1540" d="M156 0q45 591 59 1366h242q145 -235 437 -672t329 -493h4q4 137 15 400t18 461q6 173 6 276v28h180q-41 -563 -62 -1366h-239q-141 225 -412.5 626.5t-351.5 524.5h-4q-37 -867 -41 -1151h-180z" />
<glyph unicode="O" horiz-adv-x="1644" d="M129 649q0 121 28.5 229.5t90 202.5t150 162t216 107t281.5 39q211 0 369 -79.5t245.5 -234t87.5 -366.5q0 -343 -201 -537.5t-544 -194.5q-160 0 -292.5 43.5t-228.5 127t-149 211.5t-53 290zM317 651q0 -250 145 -393t396 -143q265 0 408 161t143 429q0 251 -136 398.5 t-384 147.5q-269 0 -420.5 -164.5t-151.5 -435.5z" />
<glyph unicode="P" horiz-adv-x="1097" d="M156 0q26 296 39.5 727.5t13.5 638.5h541q82 0 146 -23t101.5 -57.5t61.5 -80.5t32.5 -86.5t8.5 -80.5q0 -102 -39 -184.5t-106.5 -134.5t-154.5 -79.5t-186 -27.5q-60 0 -159 15l-35 127q96 -15 151 -15q147 0 243.5 72.5t96.5 216.5q0 59 -19.5 101t-52.5 63.5t-68 31 t-75 9.5h-313q-2 -58 -9.5 -221t-10.5 -249t-8 -226.5t-7 -271t-2 -265.5h-190z" />
<glyph unicode="Q" horiz-adv-x="1644" d="M129 649q0 121 28.5 229.5t90 202.5t150 162t216 107t281.5 39q211 0 369 -79.5t245.5 -234t87.5 -366.5q0 -393 -311 -580l4 -4q138 8 307 63l-28 -155q-403 -56 -717 -56q-160 0 -292.5 43.5t-228.5 127t-149 211.5t-53 290zM317 651q0 -250 145 -393t396 -143 q265 0 408 161t143 429q0 251 -136 398.5t-384 147.5q-269 0 -420.5 -164.5t-151.5 -435.5z" />
<glyph unicode="R" horiz-adv-x="1146" d="M156 0q53 709 55 1366h522q78 0 144.5 -17t123 -53.5t89 -103t32.5 -156.5q0 -163 -115 -274t-317 -117l412 -645h-213q-57 115 -128.5 238.5t-165 274.5t-140.5 232q75 -14 133 -14q93 0 169 29t126.5 96t50.5 162q0 54 -16 94.5t-39.5 63t-59 36t-66.5 17.5t-69 4h-295 q-32 -732 -37 -1233h-196z" />
<glyph unicode="S" horiz-adv-x="978" d="M92 203q187 -88 344 -88q53 0 99 9.5t89.5 32t69 66.5t25.5 105q0 44 -32 92.5t-82.5 95t-112 95.5t-123 101t-112 104t-82.5 111.5t-32 116.5q0 156 106 250.5t320 94.5q103 0 285 -31l14 -160q-145 53 -278 53q-121 0 -189.5 -56t-68.5 -130q0 -51 31.5 -103.5 t82.5 -99.5t112 -95t122.5 -99t112.5 -104t82.5 -117t31.5 -130q0 -74 -26 -133t-69.5 -97t-102.5 -63.5t-121 -36t-129 -10.5q-138 0 -353 58z" />
<glyph unicode="T" horiz-adv-x="1026" d="M49 1223l6 143h1041l-6 -143q-108 10 -252 10h-174q-4 -90 -14 -300.5t-15.5 -327t-9.5 -289t-4 -316.5h-199q6 75 11 157.5t9 147t8 161t6.5 146.5t6.5 161t5.5 147.5t5.5 161.5t5 151h-215q-35 0 -215 -10z" />
<glyph unicode="U" horiz-adv-x="1462" d="M170 401q0 69 17.5 438t21.5 527h197q-2 -32 -12.5 -176.5t-14.5 -209t-10.5 -175.5t-9 -187t-3.5 -133q0 -194 100 -282t298 -88q70 0 132 14t116 44t92 82.5t53 123.5q18 87 36.5 444.5t20.5 542.5h197q-4 -84 -15 -251t-19.5 -322t-12.5 -314q-3 -88 -21 -159.5 t-62 -137t-112 -109.5t-175 -70t-247 -26q-275 0 -421 115.5t-146 308.5z" />
<glyph unicode="V" horiz-adv-x="1318" d="M23 1366h198q68 -224 211 -633t199 -583q73 154 281 569.5t311 646.5h202q-447 -851 -694 -1366h-229q-65 204 -145 432t-180 503.5t-154 430.5z" />
<glyph unicode="W" horiz-adv-x="1908" d="M39 1366h194q182 -636 365 -1198q182 379 291 643q-88 289 -184 555h196l96 -334q75 160 138 334h198q-122 -249 -260 -555q99 -340 205 -643q289 633 524 1198h195l-629 -1366h-209q-86 300 -190 590q-140 -276 -279 -590h-209z" />
<glyph unicode="X" horiz-adv-x="1183" d="M-39 0q177 215 553 711l-436 655h223q57 -103 176.5 -283t161.5 -249q26 36 173.5 229.5t217.5 302.5h211l-510 -664l465 -702h-223q-50 88 -110.5 183.5t-139 214t-117.5 180.5q-47 -64 -136.5 -181t-160.5 -213t-131 -184h-217z" />
<glyph unicode="Y" horiz-adv-x="1075" d="M31 1366h209q53 -111 167.5 -315.5t163.5 -302.5q42 66 125 192.5t148 229t121 196.5h209l-525 -780l-22 -586h-197q30 374 39 598z" />
<glyph unicode="Z" horiz-adv-x="1175" d="M82 0l6 156q430 540 838 1077h-467q-158 0 -289 -12l4 145h975l-6 -154l-840 -1079h438q156 0 349 12l-7 -145h-1001z" />
<glyph unicode="[" horiz-adv-x="624" d="M199 -426l106 1792h316l-7 -86h-147l-98 -1620h153l-4 -86h-319z" />
<glyph unicode="\" horiz-adv-x="569" d="M-125 1366h188q314 -663 664 -1366h-188q-314 664 -664 1366z" />
<glyph unicode="]" horiz-adv-x="624" d="M57 -426l6 86h148l98 1620h-153l4 86h319l-106 -1792h-316z" />
<glyph unicode="^" d="M92 598q183 313 434 768h213q179 -384 369 -768h-201q-105 264 -278 662q-236 -454 -336 -662h-201z" />
<glyph unicode="_" horiz-adv-x="1024" d="M0 -154h1024v-102h-1024v102z" />
<glyph unicode="`" horiz-adv-x="593" d="M135 1411h223l101 -287h-135z" />
<glyph unicode="a" horiz-adv-x="1083" d="M78 246q0 86 41 148.5t106.5 96.5t145 58t158.5 42t144.5 39.5t106.5 59.5t41 94q0 44 -22.5 74.5t-60 45t-74.5 20.5t-78 6q-188 0 -375 -80l18 133q201 53 379 53q98 0 170 -15t113 -39t65 -60t31.5 -70t7.5 -78q0 -67 -15 -359.5t-15 -414.5h-181q7 55 13 136t9 139.5 t8 168t7 150.5q-30 -30 -88 -55t-120.5 -40t-130 -37t-120 -46t-86.5 -67.5t-34 -100.5q0 -60 37 -98.5t85.5 -52t106.5 -13.5q102 0 211 37l-33 -123q-115 -21 -200 -21q-371 0 -371 269z" />
<glyph unicode="b" d="M141 0q38 565 56 1366h184q-14 -143 -25 -369q166 39 299 39q106 0 192.5 -25t157.5 -79.5t110.5 -152.5t39.5 -232q0 -115 -29 -215.5t-86 -181t-150.5 -127t-213.5 -46.5q-126 0 -221 58.5t-138 171.5l-4 -4v-203h-172zM334 481q0 -181 81.5 -279t229.5 -98 q87 0 154 39t105.5 104t57.5 140.5t19 157.5q0 174 -90.5 269t-263.5 95q-133 0 -281 -51q-1 -37 -6.5 -163t-5.5 -214z" />
<glyph unicode="c" horiz-adv-x="964" d="M115 475q0 121 30.5 221t92 177t163 120t234.5 43q148 0 278 -39l11 -139q-151 51 -289 51q-167 0 -256.5 -122t-89.5 -310q0 -179 92.5 -276t269.5 -97q96 0 240 46l-25 -144q-139 -29 -260 -29q-237 0 -364 130.5t-127 367.5z" />
<glyph unicode="d" horiz-adv-x="1228" d="M115 446q0 95 23 181t72 161t120.5 130t174 86.5t226.5 31.5q117 0 223 -20q7 141 7 350h180q-43 -732 -49 -1366h-170l12 205l-4 4q-121 -232 -385 -232q-188 0 -309 124.5t-121 344.5zM289 455q0 -156 79.5 -253.5t227.5 -97.5q128 0 212 85.5t110 216.5q14 70 19 150 t6 179t3 146q-92 28 -221 28q-92 0 -167.5 -29t-124 -75t-82 -107t-48 -121.5t-14.5 -121.5z" />
<glyph unicode="e" horiz-adv-x="1083" d="M115 483q0 118 33 218.5t95.5 175t159.5 117t218 42.5q206 0 323 -105t117 -310q0 -37 -6 -93h-766v-57q0 -175 101.5 -271t277.5 -96q121 0 311 64l-29 -150q-155 -41 -309 -41q-122 0 -215.5 29t-151.5 76.5t-94.5 115t-50.5 136.5t-14 149zM301 635h596 q0 133 -64.5 214t-195.5 81q-137 0 -224.5 -79.5t-111.5 -215.5z" />
<glyph unicode="f" horiz-adv-x="606" d="M88 887l6 127h131q0 52 1 86.5t5 75.5t13 67.5t23.5 55.5t37 46t53 32t73 21.5t95.5 6.5q82 0 195 -25l8 -131q-100 29 -188 29q-26 0 -47.5 -5t-37 -11.5t-28 -20.5t-20.5 -25.5t-13 -33t-8 -36t-4.5 -42t-1.5 -43v-47.5h278l-8 -127h-270q-3 -180 -13.5 -454 t-11.5 -433h-182q18 264 39 887h-125z" />
<glyph unicode="g" horiz-adv-x="1245" d="M115 426q0 84 16 162t61 162t115.5 145t191 101t275.5 40q157 0 383 -41q-2 -33 -8 -106.5t-8.5 -106t-7 -116t-8 -169.5t-8 -229.5t-9.5 -330.5q-2 -76 -16.5 -137t-48.5 -115.5t-88 -91t-138 -57.5t-194 -21q-209 0 -406 49l-10 149q220 -71 389 -71q138 0 214.5 42 t107.5 150q15 51 21 111t8 152t3 112l-4 4q-51 -115 -154.5 -173t-236.5 -58q-207 0 -323.5 118.5t-116.5 325.5zM289 453q0 -161 79.5 -252.5t237.5 -91.5q118 0 203 68.5t123 184.5q20 59 28.5 152.5t11 214.5t5.5 158q-110 22 -211 22q-92 0 -168 -22t-124 -56t-84.5 -81 t-55 -89.5t-29.5 -89t-13.5 -72t-2.5 -46.5z" />
<glyph unicode="h" horiz-adv-x="1234" d="M141 0q47 692 56 1366h180q-26 -398 -31 -551l4 4q59 116 163 166.5t253 50.5q84 0 151 -16.5t120.5 -52.5t82.5 -98.5t29 -149.5q0 -29 -14 -327.5t-15 -391.5h-178q33 499 33 657q0 242 -275 242q-129 0 -218 -73t-117 -199q-9 -43 -16.5 -104t-11 -114t-6.5 -126.5 t-4 -113t-2 -102t-1 -67.5h-183z" />
<glyph unicode="i" horiz-adv-x="464" d="M141 0q39 485 45 1014h183q-36 -485 -39 -1014h-189zM186 1225l4 141h193l-4 -141h-193z" />
<glyph unicode="j" horiz-adv-x="524" d="M-254 -309q122 -39 234 -39q111 0 160.5 60.5t60.5 199.5q12 146 24.5 459.5t12.5 642.5h180q-20 -366 -39 -963q-1 -20 -2 -61q-2 -73 -4 -109.5t-10 -97.5t-21.5 -91.5t-39.5 -70.5t-63.5 -59t-94.5 -33t-130 -14q-100 0 -254 30zM238 1225l4 141h192l-4 -141h-192z " />
<glyph unicode="k" horiz-adv-x="972" d="M141 0q42 574 52 1366h180q-41 -650 -54 -1366h-178zM348 565q44 48 130.5 139.5t153.5 165.5t124 144h207l-433 -451l467 -563h-202q-80 114 -241.5 311t-205.5 254z" />
<glyph unicode="l" horiz-adv-x="464" d="M141 0q47 694 62 1366h182q-36 -479 -59 -1366h-185z" />
<glyph unicode="m" horiz-adv-x="1757" d="M141 0q41 461 45 1014h170l-10 -183l4 5q49 95 139 147.5t203 52.5q114 0 196.5 -51t110.5 -156q101 207 357 207q141 0 228 -69.5t87 -206.5q0 -29 -16.5 -275t-18.5 -485h-172q4 67 13.5 214.5t14.5 258.5t5 213q0 213 -205 213q-26 0 -54 -7t-63 -23.5t-68.5 -52 t-57.5 -85.5q-34 -71 -45 -198.5t-19 -443.5q-1 -58 -2 -89h-180q4 67 13.5 214.5t14.5 258.5t5 213q0 213 -205 213q-26 0 -54.5 -7t-63.5 -23.5t-68.5 -52t-57.5 -85.5q-33 -70 -43.5 -189.5t-18.5 -433.5q-2 -70 -3 -108h-181z" />
<glyph unicode="n" horiz-adv-x="1234" d="M141 0q48 644 52 1014h176l-13 -197l4 4q59 116 160.5 165.5t245.5 49.5q84 0 151 -16.5t120.5 -52.5t82.5 -98.5t29 -149.5q0 -29 -14 -327.5t-15 -391.5h-178q33 499 33 657q0 242 -275 242q-129 0 -218 -73t-117 -199q-9 -43 -16.5 -104t-11 -114t-6.5 -126.5t-4 -113 t-2 -102t-1 -67.5h-183z" />
<glyph unicode="o" d="M115 481q0 254 143 404.5t395 150.5q232 0 367 -133t135 -364q0 -83 -17 -160t-57 -151.5t-99.5 -129t-152.5 -88t-208 -33.5q-231 0 -368.5 136.5t-137.5 367.5zM289 475q0 -166 85 -268.5t251 -102.5q94 0 164.5 35t111.5 97t60.5 138t19.5 167q0 174 -85 271t-257 97 q-115 0 -195.5 -58t-117.5 -154t-37 -222z" />
<glyph unicode="p" horiz-adv-x="1214" d="M135 -451q45 646 58 1428q263 59 475 59q84 0 156 -15t136 -50.5t109 -90.5t71.5 -140t26.5 -193q0 -115 -29 -215.5t-86 -181t-150.5 -127t-213.5 -46.5q-110 0 -202.5 51t-149.5 150h-4q0 -80 -7.5 -284t-7.5 -345h-182zM346 481q0 -181 81.5 -279t229.5 -98 q87 0 154 39t105.5 104t57.5 140.5t19 157.5q0 174 -90.5 269t-263.5 95q-133 0 -281 -51q-1 -37 -6.5 -163t-5.5 -214z" />
<glyph unicode="q" horiz-adv-x="1212" d="M115 438q0 55 7 107t26 113t49.5 113.5t82 102.5t118.5 85t163.5 56t212.5 21q147 0 348 -35q-8 -100 -14.5 -201.5t-11.5 -219t-8.5 -196t-7 -219t-5 -196.5t-4.5 -218.5t-4 -201.5h-182l33 656l-5 4q-57 -111 -154.5 -171.5t-221.5 -60.5q-130 0 -227.5 62.5 t-146 166.5t-48.5 232zM289 434q0 -139 75 -234.5t211 -95.5q123 0 208.5 77t117.5 200q33 116 33 502q-96 26 -180 26q-218 0 -341.5 -127.5t-123.5 -347.5z" />
<glyph unicode="r" horiz-adv-x="712" d="M141 0l8 144t8.5 158t7.5 152t7 176.5t3 177.5t1 206h170l-6 -162h4q50 95 122 139.5t183 44.5q38 0 80 -10l6 -149q-59 16 -114 16q-119 0 -189.5 -79.5t-89.5 -203.5q-20 -131 -20 -610h-181z" />
<glyph unicode="s" horiz-adv-x="815" d="M80 170q161 -66 287 -66q36 0 69 6t65 20t51 41t19 65t-23 76.5t-60 72t-81.5 68.5t-89.5 72t-82 75.5t-60 85.5t-23 96q0 115 87.5 184.5t258.5 69.5q93 0 245 -26l9 -144q-120 43 -236 43q-190 0 -190 -116q0 -43 31 -88t77.5 -82.5t101 -82.5t101 -88t77.5 -100 t31 -116q0 -68 -32 -120t-85.5 -81t-113 -43.5t-123.5 -14.5q-140 0 -297 41z" />
<glyph unicode="t" horiz-adv-x="651" d="M84 887l4 127h137l11 186l161 35l-8 -221h277l-4 -127h-279q-3 -70 -9.5 -204.5t-11 -235.5t-4.5 -158q0 -41 4 -68.5t16.5 -53.5t38.5 -39t66 -13q68 0 162 24l-22 -137q-109 -25 -189 -25q-130 0 -190 56.5t-60 187.5q0 61 14.5 313.5t18.5 352.5h-133z" />
<glyph unicode="u" horiz-adv-x="1218" d="M141 307q0 63 15.5 321.5t15.5 385.5h178q-2 -52 -18.5 -289.5t-16.5 -366.5q0 -124 69.5 -183.5t188.5 -59.5q159 0 246.5 86t108.5 239q16 120 26 574h176q-45 -660 -47 -1014h-168l7 188l-4 -4q-98 -207 -392 -207q-178 0 -281.5 79t-103.5 251z" />
<glyph unicode="v" horiz-adv-x="1007" d="M37 1014h186l287 -862l358 862h187q-312 -672 -455 -1014h-197z" />
<glyph unicode="w" horiz-adv-x="1708" d="M29 1014h172q72 -231 291 -848h4l311 848h182l232 -848h4l352 848h170l-447 -1014h-194l-219 827h-4l-305 -827h-191z" />
<glyph unicode="x" horiz-adv-x="989" d="M6 0l402 545l-297 469h202l215 -367l254 367h197l-348 -465l350 -549h-207q-35 69 -77.5 141.5t-100 164t-84.5 136.5l-305 -442h-201z" />
<glyph unicode="y" horiz-adv-x="1003" d="M-43 -317q84 -41 154 -41q44 0 73.5 9t68 40.5t78.5 101t85 180.5l-369 1041h189q40 -158 138 -449.5t134 -425.5h4l365 875h182l-545 -1207q-18 -40 -30.5 -65t-33 -59.5t-39 -55.5t-46.5 -45t-59 -37t-72 -21.5t-89 -8.5q-86 0 -172 22z" />
<glyph unicode="z" horiz-adv-x="909" d="M76 0l4 150l602 737h-236q-103 0 -303 -13l7 140h722l-6 -158l-598 -729h326q115 0 242 8l-11 -135h-749z" />
<glyph unicode="{" horiz-adv-x="624" d="M133 412l4 106q44 -2 75 9t47 27t25 45.5t11 53t2 60.5q0 46 9 197.5t9 273.5q0 94 52 138t135 44h137l-4 -86h-80q-34 0 -56 -37t-22 -104q0 -43 -9 -190.5t-9 -266.5q0 -37 -10 -68.5t-23 -51t-33 -37.5t-33 -26t-30.5 -16.5t-18.5 -9.5v-4q1 0 14 -7.5t22 -13.5 t24.5 -18t26.5 -27.5t22 -36t16.5 -47.5t5.5 -59q0 -43 -9 -190.5t-9 -266.5q0 -141 68 -141h81l-4 -86h-137q-174 0 -174 182q0 44 9 191.5t9 267.5q0 29 -0.5 44t-3 40t-7.5 38t-15.5 30t-25.5 25t-38 13.5t-53 4.5z" />
<glyph unicode="|" horiz-adv-x="600" d="M240 -512v2048h170v-2048h-170z" />
<glyph unicode="}" horiz-adv-x="624" d="M45 -424l4 86h80q34 0 56 37t22 104q0 43 9 190.5t9 266.5q0 37 10 68.5t23 51t33 37.5t33 26t30.5 16.5t18.5 9.5v4q-1 0 -14 7.5t-22 13.5t-24.5 18t-26.5 27.5t-22 36t-16.5 47.5t-5.5 59q0 43 9 190.5t9 266.5q0 141 -67 141h-82l4 86h137q174 0 174 -182 q0 -44 -9 -191.5t-9 -267.5q0 -29 0.5 -44t3 -40t7.5 -38t15.5 -30t25.5 -25t38 -13.5t53 -4.5l-4 -106q-44 2 -75 -9t-47 -27t-25 -45.5t-11 -53t-2 -60.5q0 -46 -9 -197.5t-9 -273.5q0 -94 -52 -138t-135 -44h-137z" />
<glyph unicode="~" d="M98 477q105 185 275 185q12 0 23.5 -1t26 -4.5t24 -5.5t27 -8t25.5 -8.5t28 -11t26 -11t29.5 -12.5t27.5 -12q164 -74 248 -74q96 0 176 148l80 -127q-105 -185 -274 -185q-33 0 -78.5 13t-71 23.5t-88.5 37.5q-164 74 -248 74q-96 0 -176 -148z" />
<glyph unicode="&#xa1;" horiz-adv-x="485" d="M135 -352q11 151 60 1065h157q-2 -82 -10.5 -326.5t-12 -411.5t-3.5 -327h-191zM176 827l10 187h193l-8 -187h-195z" />
<glyph unicode="&#xa2;" d="M242 631q0 98 26 191.5t75.5 173t130 133t181.5 63.5q4 33 4 174h148q-2 -27 -5 -82t-5 -82q106 -6 213 -41l10 -149q-119 53 -238 53q-91 0 -162 -35.5t-113 -97.5t-63.5 -138t-21.5 -163q0 -166 87 -271.5t249 -105.5q118 0 233 41l-24 -145q-149 -33 -217 -33 q-5 -92 -5 -154h-141q4 54 8 162q-185 31 -277.5 170.5t-92.5 335.5z" />
<glyph unicode="&#xa3;" d="M205 621l22 127h133q-7 19 -38 89t-44.5 118t-13.5 98q0 73 28.5 132t74.5 96.5t107.5 62.5t124.5 35t130 10q139 0 279 -35l14 -152q-149 60 -287 60q-49 0 -97 -11t-93 -34.5t-73 -65.5t-28 -98q0 -51 14.5 -101t42 -113t36.5 -91h430l-25 -127h-379q17 -87 17 -121 q0 -86 -28.5 -153.5t-88.5 -145.5q66 8 96 8q62 0 97.5 -7.5t103.5 -31.5q3 -1 5.5 -2t6 -2t6.5 -2q135 -41 213 -41q102 0 185 41l-31 -158q-74 -29 -160 -29q-107 0 -266 60q-54 19 -84.5 28.5t-77.5 19t-88 9.5q-147 0 -248 -98l6 164q89 56 139 141t50 188q0 39 -13 132 h-198z" />
<glyph unicode="&#xa4;" d="M86 332l117 119q-90 117 -90 290q0 200 118 312l-112 118l104 101l111 -115q59 49 141.5 76t165.5 27q86 0 163.5 -26.5t131.5 -74.5l121 115l100 -105l-117 -112q88 -106 88 -295q0 -185 -112 -316l106 -114l-100 -96l-111 118q-119 -110 -311 -110q-186 0 -303 108 l-117 -119zM287 741q0 -157 89 -258.5t230 -101.5q146 0 247 107t101 274q0 157 -89 258.5t-230 101.5q-146 0 -247 -107t-101 -274z" />
<glyph unicode="&#xa5;" d="M31 444l8 127h457l-127 263h-326l6 127h250l-217 405h201q48 -113 153.5 -318.5t147.5 -299.5q279 458 368 618h197l-258 -405h258l-4 -127h-332l-160 -263h469l-6 -127h-473l-20 -444h-174l38 444h-456z" />
<glyph unicode="&#xa6;" horiz-adv-x="600" d="M240 -358v716h170v-716h-170zM240 666v716h170v-716h-170z" />
<glyph unicode="&#xa7;" horiz-adv-x="1093" d="M145 471q0 115 64.5 207.5t171.5 152.5q-111 100 -111 228q0 42 9.5 84t36.5 87.5t68 79.5t110 56.5t157 22.5q128 0 267 -50v-135q-141 58 -248 58q-96 0 -157.5 -51.5t-61.5 -161.5q0 -54 31 -98.5t80.5 -77t109.5 -64t119.5 -67t109 -76.5t80.5 -101.5t31 -134.5 q0 -218 -230 -358q107 -94 107 -234q0 -76 -31 -138.5t-83.5 -102t-119 -61t-139.5 -21.5q-116 0 -287 49v141q157 -63 254 -63q96 0 161 56.5t65 158.5q0 54 -31 99t-81 77t-110 62.5t-120 64.5t-110 74.5t-81 101t-31 135.5zM293 496q0 -48 20 -89.5t50 -70.5t74.5 -58 t83.5 -48.5t87 -44t76 -42.5q180 96 180 248q0 58 -26 106t-73 83t-93 61t-105.5 56.5t-91.5 52.5q-77 -38 -129.5 -106t-52.5 -148z" />
<glyph unicode="&#xa8;" horiz-adv-x="768" d="M205 1233l6 156h178l-6 -156h-178zM516 1233l6 156h178l-6 -156h-178z" />
<glyph unicode="&#xa9;" horiz-adv-x="1628" d="M90 662q0 154 52 286.5t147 230.5t237.5 154t315.5 56q171 0 306.5 -55t220 -150.5t128 -218t43.5 -263.5q0 -154 -52 -286.5t-147.5 -230t-238.5 -153t-316 -55.5q-138 0 -253 36t-196 99t-137.5 149.5t-83 187.5t-26.5 213zM244 662q0 -117 37 -221t105 -184 t172.5 -126.5t232.5 -46.5q129 0 240.5 47.5t189 130t121.5 196.5t44 244q0 117 -37 221.5t-105 184.5t-173 127t-233 47q-172 0 -308 -82t-211 -223t-75 -315zM408 672q0 197 135.5 315.5t357.5 118.5q99 0 217 -23l19 -118q-136 34 -240 34q-336 0 -336 -327 q0 -66 13.5 -117.5t46.5 -95.5t96 -68t153 -24q131 0 244 36l-27 -118q-109 -25 -221 -25q-209 0 -333.5 104t-124.5 308z" />
<glyph unicode="&#xaa;" horiz-adv-x="757" d="M154 940q0 48 24 83t62 55t84 34t92 25t84 23t62 32t24 49q0 74 -131 74q-106 0 -226 -45l15 88q127 31 223 31q47 0 83 -6t71.5 -21t55 -47t19.5 -80q0 -38 -9 -188.5t-7 -251.5h-117q21 218 21 329q-23 -22 -80.5 -40.5t-109.5 -30.5t-93 -41t-41 -72q0 -48 39 -71 t90 -23q50 0 129 33l-22 -86q-59 -21 -121 -21q-43 0 -79.5 7.5t-70 25.5t-52.5 52.5t-19 82.5z" />
<glyph unicode="&#xab;" horiz-adv-x="864" d="M133 512q97 158 201 354h127l-162 -354l131 -350h-123zM442 512q97 158 201 354h127l-162 -354l131 -350h-123z" />
<glyph unicode="&#xac;" d="M104 631l7 164h1011q-20 -460 -22 -578h-172q16 141 24 414h-848z" />
<glyph unicode="&#xad;" horiz-adv-x="509" d="M27 444l6 138h504l-7 -138h-503z" />
<glyph unicode="&#xae;" horiz-adv-x="1628" d="M90 662q0 154 52 286.5t147 230.5t237.5 154t315.5 56q171 0 306.5 -55t220 -150.5t128 -218t43.5 -263.5q0 -154 -52 -286.5t-147.5 -230t-238.5 -153t-316 -55.5q-138 0 -253 36t-196 99t-137.5 149.5t-83 187.5t-26.5 213zM244 662q0 -117 37 -221t105 -184 t172.5 -126.5t232.5 -46.5q129 0 240.5 47.5t189 130t121.5 196.5t44 244q0 117 -37 221.5t-105 184.5t-173 127t-233 47q-172 0 -308 -82t-211 -223t-75 -315zM481 289q26 513 33 823h393q117 0 184.5 -51.5t67.5 -161.5q0 -61 -19.5 -107t-47 -71t-64 -41t-64.5 -20.5 t-55 -4.5q105 -161 258 -366h-202q-80 157 -256 459q9 -1 26.5 -5t32 -6t27.5 -2q100 0 155.5 31.5t55.5 116.5q0 123 -136 123h-204q-23 -460 -23 -717h-162z" />
<glyph unicode="&#xaf;" horiz-adv-x="845" d="M182 1249l13 97h573l-12 -97h-574z" />
<glyph unicode="&#xb0;" horiz-adv-x="901" d="M154 1067q0 140 93.5 231t250.5 91q153 0 236 -86.5t83 -215.5q0 -140 -93.5 -230.5t-250.5 -90.5q-153 0 -236 86t-83 215zM287 1067q0 -83 48 -139t142 -56q97 0 152 60t55 155q0 83 -48 139t-142 56q-97 0 -152 -60t-55 -155z" />
<glyph unicode="&#xb1;" d="M88 0l6 164h1012l-6 -164h-1012zM109 547l6 164h424q11 176 8 303h170q-12 -149 -15 -303h424l-6 -164h-424q-9 -150 -6 -301h-170q8 100 12 301h-423z" />
<glyph unicode="&#xb2;" horiz-adv-x="720" d="M55 557l4 98q451 398 451 506q0 66 -49 93.5t-121 27.5q-97 0 -244 -35l21 117q154 25 258 25q41 0 79 -5.5t77 -19.5t68 -35.5t47 -56.5t18 -80q0 -39 -14.5 -77t-38.5 -74.5t-74.5 -89.5t-103.5 -103.5t-145 -135.5q-34 -31 -52 -48h397l-6 -107h-572z" />
<glyph unicode="&#xb3;" horiz-adv-x="720" d="M61 696q138 -55 242 -55q94 0 164 40.5t70 113.5q0 139 -228 139q-28 0 -94 -4l8 117q35 -7 64 -7q225 0 225 136q0 54 -50 80t-124 26q-101 0 -207 -25l16 113q129 19 203 19q316 0 316 -197q0 -154 -174 -209v-4q83 -3 136.5 -52.5t53.5 -138.5q0 -47 -20 -90 t-61.5 -80.5t-116 -60t-173.5 -22.5q-101 0 -237 40z" />
<glyph unicode="&#xb4;" horiz-adv-x="593" d="M203 1124l100 287h223l-188 -287h-135z" />
<glyph unicode="&#xb5;" horiz-adv-x="1218" d="M109 -451q14 352 30.5 688t24.5 507t8 270h178q-2 -52 -18.5 -289.5t-16.5 -366.5q0 -124 69.5 -183.5t188.5 -59.5q159 0 246.5 86t108.5 239q16 120 26 574h176q-45 -660 -47 -1014h-168l7 188l-4 -4q-98 -207 -392 -207q-83 0 -146 19.5t-75 48.5h-4l-10 -496h-182z " />
<glyph unicode="&#xb6;" horiz-adv-x="1093" d="M76 999q0 185 117 276t339 91h433q-19 -274 -43.5 -955t-22.5 -880h-123q20 195 40.5 845t23.5 894h-125q-1 -25 -12 -298.5t-21.5 -537.5t-19.5 -538t-9 -365h-121q9 140 17.5 308.5t12.5 281t10.5 317.5t9.5 289q-84 -43 -176 -43q-140 0 -235 88t-95 227zM223 1001 q0 -92 58 -156.5t149 -64.5q66 0 154 45q14 210 14 445h-102q-64 0 -114 -18.5t-79 -47t-48 -66t-25.5 -71t-6.5 -66.5z" />
<glyph unicode="&#xb7;" horiz-adv-x="600" d="M225 414l8 186h195l-10 -186h-193z" />
<glyph unicode="&#xb8;" horiz-adv-x="655" d="M176 -350l209 248h135l-125 -248h-219z" />
<glyph unicode="&#xb9;" horiz-adv-x="720" d="M217 1174l6 129l107 63h147q-35 -438 -35 -809h-159q16 202 34 686z" />
<glyph unicode="&#xba;" horiz-adv-x="757" d="M119 1079q0 143 88 226.5t231 83.5q137 0 216 -77t79 -214q0 -21 -2.5 -44t-10.5 -56t-21.5 -63t-38 -60.5t-56 -52.5t-80 -36t-106.5 -14q-140 0 -219.5 77.5t-79.5 229.5zM231 1075q0 -97 47.5 -159t141.5 -62q100 0 150.5 70.5t50.5 175.5q0 96 -45.5 151.5 t-139.5 55.5q-100 0 -152.5 -64.5t-52.5 -167.5z" />
<glyph unicode="&#xbb;" horiz-adv-x="864" d="M133 162l166 350l-129 354h127q95 -212 166 -354q-24 -40 -96.5 -161t-110.5 -189h-123zM442 162l166 350l-129 354h127q95 -212 166 -354q-24 -40 -96.5 -161t-110.5 -189h-123z" />
<glyph unicode="&#xbc;" horiz-adv-x="1802" d="M217 1174l6 129l107 63h147q-35 -438 -35 -809h-159q16 202 34 686zM307 0q604 1010 807 1366h123q-516 -860 -803 -1366h-127zM954 252l7 121q235 281 350 436h192q-16 -230 -22 -451h149l-4 -106h-149q-7 -50 -7 -252h-155q12 110 16 252h-377zM1096 358h243 q18 184 21 336l-4 -4z" />
<glyph unicode="&#xbd;" horiz-adv-x="1802" d="M217 1174l6 129l107 63h147q-35 -438 -35 -809h-159q16 202 34 686zM338 0q604 1010 807 1366h123q-516 -860 -803 -1366h-127zM1038 0l4 98q451 398 451 506q0 66 -49 93.5t-121 27.5q-97 0 -244 -35l21 117q147 24 258 24q52 0 99.5 -9t92 -30t71 -61t26.5 -96 q0 -49 -19.5 -94t-69.5 -103.5t-115 -121.5t-177 -167q-31 -28 -47 -43h397l-6 -106h-572z" />
<glyph unicode="&#xbe;" horiz-adv-x="1802" d="M61 696q138 -55 242 -55q94 0 164 40.5t70 113.5q0 139 -228 139q-28 0 -94 -4l8 117q35 -7 64 -7q225 0 225 136q0 54 -50 80t-124 26q-101 0 -207 -25l16 113q129 19 203 19q316 0 316 -197q0 -154 -174 -209v-4q83 -3 136.5 -52.5t53.5 -138.5q0 -47 -20 -90 t-61.5 -80.5t-116 -60t-173.5 -22.5q-101 0 -237 40zM410 0q604 1010 807 1366h122q-499 -831 -802 -1366h-127zM965 252l6 121q235 281 350 436h192q-16 -230 -22 -451h149l-4 -106h-149q-6 -43 -6 -252h-156q12 110 16 252h-376zM1106 358h244q16 171 20 336l-4 -4z" />
<glyph unicode="&#xbf;" horiz-adv-x="954" d="M80 -76q0 51 19 103.5t57.5 105t67.5 86.5t77 84q90 94 112 126q38 55 50 151q6 46 14 157h162q-4 -82 -5 -116.5t-7.5 -84.5t-10 -65.5t-19 -50.5t-26 -48t-41 -49t-54.5 -63q-11 -12 -17 -18q-7 -8 -36.5 -40t-43 -48t-38.5 -47.5t-37 -54t-22 -51.5t-10 -54 q0 -56 28 -96.5t75.5 -60.5t95.5 -29t100 -9q123 0 330 55l-27 -151q-219 -31 -339 -31q-53 0 -102 5t-102.5 17t-96.5 34.5t-78.5 54.5t-55.5 80t-20 108zM463 827l10 187h193l-9 -187h-194z" />
<glyph unicode="&#xc0;" horiz-adv-x="1267" d="M-90 0q388 733 700 1366h234q54 -160 124.5 -357t111 -309t137.5 -374t120 -326h-202q-64 218 -199 575h-541l-276 -575h-209zM451 709h448l-184 522zM473 1763h223l101 -286h-135z" />
<glyph unicode="&#xc1;" horiz-adv-x="1267" d="M-90 0q388 733 700 1366h234q54 -160 124.5 -357t111 -309t137.5 -374t120 -326h-202q-64 218 -199 575h-541l-276 -575h-209zM451 709h448l-184 522zM602 1477l100 286h224l-189 -286h-135z" />
<glyph unicode="&#xc2;" horiz-adv-x="1267" d="M-90 0q388 733 700 1366h234q54 -160 124.5 -357t111 -309t137.5 -374t120 -326h-202q-64 218 -199 575h-541l-276 -575h-209zM451 709h448l-184 522zM481 1481l105 241h260l117 -241h-117l-131 168l-119 -168h-115z" />
<glyph unicode="&#xc3;" horiz-adv-x="1267" d="M-90 0q388 733 700 1366h234q54 -160 124.5 -357t111 -309t137.5 -374t120 -326h-202q-64 218 -199 575h-541l-276 -575h-209zM444 1497q1 33 3.5 59t10.5 60t22 56t39.5 38t60.5 16q25 0 54.5 -12t49 -24t53.5 -35q35 -26 51.5 -37t42 -23t43.5 -12q62 0 62 131h102 q-1 -37 -3 -63.5t-10.5 -61.5t-22.5 -57.5t-40.5 -38.5t-62.5 -16q-63 0 -160 73q-3 2 -16.5 11.5t-17.5 12t-15.5 10t-16.5 10t-14.5 8.5t-15.5 8t-13.5 5t-14.5 4t-13 1q-14 0 -24 -7t-15.5 -15.5t-9.5 -25t-5.5 -25.5t-3 -28t-1.5 -22h-99zM451 709h448l-184 522z" />
<glyph unicode="&#xc4;" horiz-adv-x="1267" d="M-90 0q388 733 700 1366h234q54 -160 124.5 -357t111 -309t137.5 -374t120 -326h-202q-64 218 -199 575h-541l-276 -575h-209zM451 709h448l-184 522zM496 1524l6 155h178l-6 -155h-178zM807 1524l6 155h178l-6 -155h-178z" />
<glyph unicode="&#xc5;" horiz-adv-x="1267" d="M-90 0q388 733 700 1366h234q54 -160 124.5 -357t111 -309t137.5 -374t120 -326h-202q-64 218 -199 575h-541l-276 -575h-209zM451 709h448l-184 522zM508 1634q0 77 56 132t138 55q81 0 137 -55t56 -132t-56 -132.5t-137 -55.5q-82 0 -138 55.5t-56 132.5zM598 1634 q0 -43 30 -72.5t74 -29.5q43 0 73 29.5t30 72.5t-30 72t-73 29q-44 0 -74 -29t-30 -72z" />
<glyph unicode="&#xc6;" horiz-adv-x="1691" d="M-90 0q178 342 248.5 478t205.5 405t236 483h1038l-8 -139q-121 6 -282 6h-461l96 -473h328q155 0 231 4l-6 -137h-528l106 -500q348 0 457 8l-6 -135h-609l-114 575h-447q-164 -298 -289 -575h-196zM449 702h376l-106 537h-4z" />
<glyph unicode="&#xc7;" horiz-adv-x="1284" d="M129 645q0 351 210 547.5t564 196.5q153 0 332 -37l10 -158q-188 57 -334 57q-268 0 -431 -162t-163 -430q0 -250 144.5 -397t394.5 -147q172 0 371 61l-25 -158q-209 -41 -352 -41q-210 0 -371.5 75t-255.5 227.5t-94 365.5zM492 -350l208 248h136l-125 -248h-219z" />
<glyph unicode="&#xc8;" horiz-adv-x="1150" d="M156 0q48 658 57 1366h885l-8 -141q-129 8 -388 8h-305l-18 -473h625l-9 -133h-622l-21 -494h215q290 0 482 12l-9 -145h-884zM414 1763h223l100 -286h-135z" />
<glyph unicode="&#xc9;" horiz-adv-x="1150" d="M156 0q48 658 57 1366h885l-8 -141q-129 8 -388 8h-305l-18 -473h625l-9 -133h-622l-21 -494h215q290 0 482 12l-9 -145h-884zM481 1477l101 286h223l-189 -286h-135z" />
<glyph unicode="&#xca;" horiz-adv-x="1150" d="M156 0q48 658 57 1366h885l-8 -141q-129 8 -388 8h-305l-18 -473h625l-9 -133h-622l-21 -494h215q290 0 482 12l-9 -145h-884zM422 1481l104 241h260l117 -241h-117l-131 168l-118 -168h-115z" />
<glyph unicode="&#xcb;" horiz-adv-x="1150" d="M156 0q48 658 57 1366h885l-8 -141q-129 8 -388 8h-305l-18 -473h625l-9 -133h-622l-21 -494h215q290 0 482 12l-9 -145h-884zM397 1524l6 155h179l-7 -155h-178zM709 1524l6 155h178l-6 -155h-178z" />
<glyph unicode="&#xcc;" horiz-adv-x="499" d="M88 1763h223l101 -286h-136zM156 0q17 300 25 451t17 416t9 499h199q-14 -211 -24.5 -477t-14.5 -412t-11 -477h-200z" />
<glyph unicode="&#xcd;" horiz-adv-x="499" d="M156 0q17 300 25 451t17 416t9 499h199q-14 -211 -24.5 -477t-14.5 -412t-11 -477h-200zM197 1477l100 286h223l-188 -286h-135z" />
<glyph unicode="&#xce;" horiz-adv-x="499" d="M76 1460l104 242h260l117 -242h-117l-131 168l-119 -168h-114zM156 0q17 300 25 451t17 416t9 499h199q-14 -211 -24.5 -477t-14.5 -412t-11 -477h-200z" />
<glyph unicode="&#xcf;" horiz-adv-x="499" d="M72 1524l6 155h178l-6 -155h-178zM156 0q17 300 25 451t17 416t9 499h199q-14 -211 -24.5 -477t-14.5 -412t-11 -477h-200zM383 1524l6 155h178l-6 -155h-178z" />
<glyph unicode="&#xd0;" horiz-adv-x="1495" d="M20 649l13 133h166q16 341 16 584h592q135 0 242.5 -30t181.5 -83.5t123 -131.5t71.5 -172t22.5 -206q0 -118 -25 -223t-84.5 -201.5t-148 -166t-225 -111t-306.5 -41.5h-503q31 388 39 649h-175zM348 133h295q85 0 158.5 12.5t145 40t127 76t98 116.5t65.5 165.5 t23 218.5q0 111 -30 197.5t-74.5 137t-104.5 82.5t-113 43t-107 11h-436l-20 -451h409l-10 -133h-403z" />
<glyph unicode="&#xd1;" horiz-adv-x="1540" d="M156 0q45 591 59 1366h242q145 -235 437 -672t329 -493h4q4 137 15 400t18 461t6 304h180q-41 -563 -62 -1366h-239q-141 225 -412.5 626.5t-351.5 524.5h-4q-37 -867 -41 -1151h-180zM518 1477q1 33 3 59t10.5 60t22 56t39 38t60.5 16q25 0 55 -12t49.5 -24t53.5 -36 q33 -24 51 -36t43 -23.5t43 -11.5q62 0 62 131h102q-1 -30 -2.5 -52t-6 -52.5t-14 -52t-24 -41t-38 -30t-54.5 -10.5q-62 0 -160 74q-30 21 -39 27t-32 19.5t-37.5 18t-28.5 4.5q-12 0 -21 -4.5t-15 -13.5t-10 -17.5t-6.5 -22.5t-3.5 -22.5t-2.5 -23t-1.5 -18.5h-98z" />
<glyph unicode="&#xd2;" horiz-adv-x="1644" d="M129 649q0 121 28.5 229.5t90 202.5t150 162t216 107t281.5 39q211 0 369 -79.5t245.5 -234t87.5 -366.5q0 -343 -201 -537.5t-544 -194.5q-160 0 -292.5 43.5t-228.5 127t-149 211.5t-53 290zM317 651q0 -250 145 -393t396 -143q265 0 408 161t143 429q0 251 -136 398.5 t-384 147.5q-269 0 -420.5 -164.5t-151.5 -435.5zM662 1763h223l100 -286h-135z" />
<glyph unicode="&#xd3;" horiz-adv-x="1644" d="M129 649q0 121 28.5 229.5t90 202.5t150 162t216 107t281.5 39q211 0 369 -79.5t245.5 -234t87.5 -366.5q0 -343 -201 -537.5t-544 -194.5q-160 0 -292.5 43.5t-228.5 127t-149 211.5t-53 290zM317 651q0 -250 145 -393t396 -143q265 0 408 161t143 429q0 251 -136 398.5 t-384 147.5q-269 0 -420.5 -164.5t-151.5 -435.5zM729 1477l100 286h224l-189 -286h-135z" />
<glyph unicode="&#xd4;" horiz-adv-x="1644" d="M129 649q0 121 28.5 229.5t90 202.5t150 162t216 107t281.5 39q211 0 369 -79.5t245.5 -234t87.5 -366.5q0 -343 -201 -537.5t-544 -194.5q-160 0 -292.5 43.5t-228.5 127t-149 211.5t-53 290zM317 651q0 -250 145 -393t396 -143q265 0 408 161t143 429q0 251 -136 398.5 t-384 147.5q-269 0 -420.5 -164.5t-151.5 -435.5zM629 1481l104 241h260l117 -241h-117l-131 168l-119 -168h-114z" />
<glyph unicode="&#xd5;" horiz-adv-x="1644" d="M129 649q0 121 28.5 229.5t90 202.5t150 162t216 107t281.5 39q211 0 369 -79.5t245.5 -234t87.5 -366.5q0 -343 -201 -537.5t-544 -194.5q-160 0 -292.5 43.5t-228.5 127t-149 211.5t-53 290zM317 651q0 -250 145 -393t396 -143q265 0 408 161t143 429q0 251 -136 398.5 t-384 147.5q-269 0 -420.5 -164.5t-151.5 -435.5zM571 1497q1 33 3.5 59t10.5 60t22 56t39.5 38t60.5 16q25 0 54.5 -12t49 -24t53.5 -35q35 -26 51.5 -37t42 -23t43.5 -12q62 0 62 131h102q-1 -37 -3 -63.5t-10.5 -61.5t-22.5 -57.5t-40.5 -38.5t-62.5 -16q-63 0 -160 73 q-3 2 -16.5 11.5t-17.5 12t-15.5 10t-16.5 10t-14.5 8.5t-15.5 8t-13.5 5t-14.5 4t-13 1q-14 0 -24 -7t-15.5 -15.5t-9.5 -25t-5.5 -25.5t-3 -28t-1.5 -22h-99z" />
<glyph unicode="&#xd6;" horiz-adv-x="1644" d="M129 649q0 121 28.5 229.5t90 202.5t150 162t216 107t281.5 39q211 0 369 -79.5t245.5 -234t87.5 -366.5q0 -343 -201 -537.5t-544 -194.5q-160 0 -292.5 43.5t-228.5 127t-149 211.5t-53 290zM317 651q0 -250 145 -393t396 -143q265 0 408 161t143 429q0 251 -136 398.5 t-384 147.5q-269 0 -420.5 -164.5t-151.5 -435.5zM643 1524l6 155h178l-6 -155h-178zM954 1524l7 155h178l-6 -155h-179z" />
<glyph unicode="&#xd7;" d="M90 139q87 78 410 387q-31 32 -91.5 95t-98 101.5t-90.5 92.5t-99 98l125 123q164 -178 375 -395q205 196 401 395l117 -123q-114 -104 -410 -387q292 -301 379 -387l-125 -123q-166 183 -373 396q-160 -153 -403 -396z" />
<glyph unicode="&#xd8;" horiz-adv-x="1644" d="M129 649q0 121 28.5 229.5t90 202.5t150 162t216 107t281.5 39q177 0 324 -64l102 154h160l-146 -215q127 -86 194.5 -227t67.5 -328q0 -343 -201 -537.5t-544 -194.5q-194 0 -342 62l-102 -152h-160l145 215q-127 83 -195.5 222t-68.5 325zM317 651q0 -271 172 -418 l654 965q-109 53 -254 53q-269 0 -420.5 -164.5t-151.5 -435.5zM590 170q122 -55 268 -55q265 0 408 161t143 429q0 289 -172 428z" />
<glyph unicode="&#xd9;" horiz-adv-x="1462" d="M170 401q0 69 17.5 438t21.5 527h197q-2 -32 -12.5 -176.5t-14.5 -209t-10.5 -175.5t-9.5 -187t-3 -133q0 -194 100 -282t298 -88q70 0 132 14t116 44t92 82.5t53 123.5q18 87 36.5 444.5t20.5 542.5h197q-4 -84 -15 -251t-19.5 -322t-12.5 -314q-3 -88 -21 -159.5 t-62 -137t-112 -109.5t-175 -70t-247 -26q-275 0 -421 115.5t-146 308.5zM569 1763h224l100 -286h-135z" />
<glyph unicode="&#xda;" horiz-adv-x="1462" d="M170 401q0 69 17.5 438t21.5 527h197q-2 -32 -12.5 -176.5t-14.5 -209t-10.5 -175.5t-9.5 -187t-3 -133q0 -194 100 -282t298 -88q70 0 132 14t116 44t92 82.5t53 123.5q18 87 36.5 444.5t20.5 542.5h197q-4 -84 -15 -251t-19.5 -322t-12.5 -314q-3 -88 -21 -159.5 t-62 -137t-112 -109.5t-175 -70t-247 -26q-275 0 -421 115.5t-146 308.5zM637 1477l100 286h224l-189 -286h-135z" />
<glyph unicode="&#xdb;" horiz-adv-x="1462" d="M170 401q0 69 17.5 438t21.5 527h197q-2 -32 -12.5 -176.5t-14.5 -209t-10.5 -175.5t-9.5 -187t-3 -133q0 -194 100 -282t298 -88q70 0 132 14t116 44t92 82.5t53 123.5q18 87 36.5 444.5t20.5 542.5h197q-4 -84 -15 -251t-19.5 -322t-12.5 -314q-3 -88 -21 -159.5 t-62 -137t-112 -109.5t-175 -70t-247 -26q-275 0 -421 115.5t-146 308.5zM537 1481l104 241h260l117 -241h-117l-131 168l-119 -168h-114z" />
<glyph unicode="&#xdc;" horiz-adv-x="1462" d="M170 401q0 69 17.5 438t21.5 527h197q-2 -32 -12.5 -176.5t-14.5 -209t-10.5 -175.5t-9.5 -187t-3 -133q0 -194 100 -282t298 -88q70 0 132 14t116 44t92 82.5t53 123.5q18 87 36.5 444.5t20.5 542.5h197q-4 -84 -15 -251t-19.5 -322t-12.5 -314q-3 -88 -21 -159.5 t-62 -137t-112 -109.5t-175 -70t-247 -26q-275 0 -421 115.5t-146 308.5zM512 1524l6 155h178l-6 -155h-178zM823 1524l6 155h179l-7 -155h-178z" />
<glyph unicode="&#xdd;" horiz-adv-x="1075" d="M31 1366h209q53 -111 167.5 -315.5t163.5 -302.5q42 66 125 192.5t148 229t121 196.5h209l-525 -780l-22 -586h-197q30 374 39 598zM444 1477l101 286h223l-188 -286h-136z" />
<glyph unicode="&#xde;" horiz-adv-x="1097" d="M156 0q26 296 39.5 727.5t13.5 638.5h184l-16 -272h368q82 0 146 -23t101.5 -57.5t62 -80t33 -86.5t8.5 -81q0 -102 -39 -184.5t-106.5 -134.5t-154.5 -79.5t-186 -27.5q-66 0 -159 14l-35 127q89 -14 151 -14q147 0 243.5 72.5t96.5 216.5q0 59 -19.5 101t-52.5 63.5 t-68 31t-75 9.5h-321q-2 -56 -9.5 -276.5t-11.5 -383.5t-4 -301h-190z" />
<glyph unicode="&#xdf;" horiz-adv-x="1161" d="M141 0q32 351 54 883q0 12 1 60.5t2.5 68.5t6 62t12 67t21.5 56t34 54q115 138 363 138q56 0 104.5 -7t96.5 -25.5t81.5 -47t54.5 -75t21 -106.5q0 -98 -23 -134.5t-100 -67.5q-4 -2 -20.5 -8.5t-21.5 -9t-19 -9t-19 -11.5t-14.5 -13t-13 -16.5t-7 -19.5t-3.5 -24 q0 -33 20.5 -63t53.5 -54t72.5 -50t79 -58t72.5 -69.5t53.5 -92.5t20.5 -121q0 -159 -97 -244.5t-257 -85.5q-105 0 -227 33l-13 144q126 -50 228 -50q81 0 136.5 57.5t55.5 162.5q0 28 -7 55t-15.5 48t-27 44.5t-31.5 37.5t-40 36t-40 32t-44.5 32t-42.5 30 q-49 37 -67.5 73.5t-18.5 96.5q0 71 23.5 106.5t87.5 55.5q57 18 74.5 45t17.5 92q0 164 -190 164q-126 0 -187.5 -65t-70.5 -193q-25 -338 -45 -1014h-185z" />
<glyph unicode="&#xe0;" horiz-adv-x="1083" d="M78 246q0 86 41 148.5t106.5 96.5t145 58t158.5 42t144.5 39.5t106.5 59.5t41 94q0 44 -22.5 74.5t-60 45t-74.5 20.5t-78 6q-188 0 -375 -80l18 133q201 53 379 53q98 0 170 -15t113 -39t65 -60t31.5 -70t7.5 -78q0 -67 -15 -359.5t-15 -414.5h-181q7 55 13 136t9 139.5 t8 168t7 150.5q-30 -30 -88 -55t-120.5 -40t-130 -37t-120 -46t-86.5 -67.5t-34 -100.5q0 -60 37 -98.5t85.5 -52t106.5 -13.5q102 0 211 37l-33 -123q-115 -21 -200 -21q-371 0 -371 269zM381 1411h223l101 -287h-136z" />
<glyph unicode="&#xe1;" horiz-adv-x="1083" d="M78 246q0 86 41 148.5t106.5 96.5t145 58t158.5 42t144.5 39.5t106.5 59.5t41 94q0 44 -22.5 74.5t-60 45t-74.5 20.5t-78 6q-188 0 -375 -80l18 133q201 53 379 53q98 0 170 -15t113 -39t65 -60t31.5 -70t7.5 -78q0 -67 -15 -359.5t-15 -414.5h-181q7 55 13 136t9 139.5 t8 168t7 150.5q-30 -30 -88 -55t-120.5 -40t-130 -37t-120 -46t-86.5 -67.5t-34 -100.5q0 -60 37 -98.5t85.5 -52t106.5 -13.5q102 0 211 37l-33 -123q-115 -21 -200 -21q-371 0 -371 269zM510 1124l100 287h224l-189 -287h-135z" />
<glyph unicode="&#xe2;" horiz-adv-x="1083" d="M78 246q0 86 41 148.5t106.5 96.5t145 58t158.5 42t144.5 39.5t106.5 59.5t41 94q0 44 -22.5 74.5t-60 45t-74.5 20.5t-78 6q-188 0 -375 -80l18 133q201 53 379 53q98 0 170 -15t113 -39t65 -60t31.5 -70t7.5 -78q0 -67 -15 -359.5t-15 -414.5h-181q7 55 13 136t9 139.5 t8 168t7 150.5q-30 -30 -88 -55t-120.5 -40t-130 -37t-120 -46t-86.5 -67.5t-34 -100.5q0 -60 37 -98.5t85.5 -52t106.5 -13.5q102 0 211 37l-33 -123q-115 -21 -200 -21q-371 0 -371 269zM348 1169l105 242h260l116 -242h-116l-131 168l-119 -168h-115z" />
<glyph unicode="&#xe3;" horiz-adv-x="1083" d="M78 246q0 86 41 148.5t106.5 96.5t145 58t158.5 42t144.5 39.5t106.5 59.5t41 94q0 44 -22.5 74.5t-60 45t-74.5 20.5t-78 6q-188 0 -375 -80l18 133q201 53 379 53q98 0 170 -15t113 -39t65 -60t31.5 -70t7.5 -78q0 -67 -15 -359.5t-15 -414.5h-181q7 55 13 136t9 139.5 t8 168t7 150.5q-30 -30 -88 -55t-120.5 -40t-130 -37t-120 -46t-86.5 -67.5t-34 -100.5q0 -60 37 -98.5t85.5 -52t106.5 -13.5q102 0 211 37l-33 -123q-115 -21 -200 -21q-371 0 -371 269zM291 1186q1 33 3 59t10.5 60t22 56t39 38t60.5 16q25 0 55 -12t49.5 -24t53.5 -36 q33 -24 51 -36t43 -23.5t43 -11.5q61 0 61 131h103q-1 -47 -5.5 -80.5t-17.5 -73.5t-42.5 -62t-74.5 -22q-61 0 -159 74q-3 2 -16.5 11.5t-17.5 12t-15.5 10t-16.5 10t-14.5 8.5t-15.5 8t-13.5 5t-14.5 4t-13 1q-12 0 -21 -4.5t-15 -13.5t-10 -17.5t-6.5 -23t-3.5 -23 t-2.5 -23t-1.5 -18.5h-98z" />
<glyph unicode="&#xe4;" horiz-adv-x="1083" d="M78 246q0 86 41 148.5t106.5 96.5t145 58t158.5 42t144.5 39.5t106.5 59.5t41 94q0 44 -22.5 74.5t-60 45t-74.5 20.5t-78 6q-188 0 -375 -80l18 133q201 53 379 53q98 0 170 -15t113 -39t65 -60t31.5 -70t7.5 -78q0 -67 -15 -359.5t-15 -414.5h-181q7 55 13 136t9 139.5 t8 168t7 150.5q-30 -30 -88 -55t-120.5 -40t-130 -37t-120 -46t-86.5 -67.5t-34 -100.5q0 -60 37 -98.5t85.5 -52t106.5 -13.5q102 0 211 37l-33 -123q-115 -21 -200 -21q-371 0 -371 269zM362 1233l7 156h178l-6 -156h-179zM674 1233l6 156h178l-6 -156h-178z" />
<glyph unicode="&#xe5;" horiz-adv-x="1083" d="M78 246q0 86 41 148.5t106.5 96.5t145 58t158.5 42t144.5 39.5t106.5 59.5t41 94q0 44 -22.5 74.5t-60 45t-74.5 20.5t-78 6q-188 0 -375 -80l18 133q201 53 379 53q98 0 170 -15t113 -39t65 -60t31.5 -70t7.5 -78q0 -67 -15 -359.5t-15 -414.5h-181q7 55 13 136t9 139.5 t8 168t7 150.5q-30 -30 -88 -55t-120.5 -40t-130 -37t-120 -46t-86.5 -67.5t-34 -100.5q0 -60 37 -98.5t85.5 -52t106.5 -13.5q102 0 211 37l-33 -123q-115 -21 -200 -21q-371 0 -371 269zM416 1323q0 77 56 131.5t138 54.5q81 0 137 -54.5t56 -131.5t-56 -132.5t-137 -55.5 q-82 0 -138 55.5t-56 132.5zM506 1323q0 -43 30 -72.5t74 -29.5q43 0 73 29.5t30 72.5q0 42 -30 71t-73 29q-44 0 -74 -28.5t-30 -71.5z" />
<glyph unicode="&#xe6;" horiz-adv-x="1705" d="M78 242q0 68 24.5 121.5t66 88t95 60.5t113 43.5t118.5 32.5t112.5 31.5t95 37t66 52.5t24.5 75q0 35 -14 62t-34.5 42.5t-49.5 25.5t-55 13t-54 3q-188 0 -375 -80l18 133q201 53 379 53q39 0 81 -7t93 -24.5t90 -56.5t52 -94q116 182 348 182q184 0 297.5 -107.5 t113.5 -291.5q0 -53 -6 -109h-721v-53q0 -168 87.5 -269.5t234.5 -101.5q133 0 311 56l-28 -152q-152 -31 -283 -31q-76 0 -141 15.5t-111 41t-83.5 62t-61.5 73t-41.5 80.5t-26 78t-13.5 72t-6 56.5t-1 36.5q0 26 10 118l-4 4q-25 -44 -93 -76.5t-144.5 -54.5t-150 -48.5 t-121.5 -72t-48 -110.5q0 -47 21.5 -81t58 -52.5t75.5 -26.5t82 -8q105 0 236 49l-31 -121q-144 -35 -250 -35q-164 0 -260 64.5t-96 200.5zM961 635h559q0 295 -258 295q-127 0 -204 -82t-97 -213z" />
<glyph unicode="&#xe7;" horiz-adv-x="964" d="M115 475q0 121 30.5 221t92 177t163 120t234.5 43q148 0 278 -39l11 -139q-151 51 -289 51q-167 0 -256.5 -122t-89.5 -310q0 -179 92.5 -276t269.5 -97q96 0 240 46l-25 -144q-139 -29 -260 -29q-237 0 -364 130.5t-127 367.5zM332 -350l209 248h135l-125 -248h-219z " />
<glyph unicode="&#xe8;" horiz-adv-x="1083" d="M115 483q0 118 33 218.5t95.5 175t159.5 117t218 42.5q206 0 323 -105t117 -310q0 -37 -6 -93h-766v-57q0 -175 101.5 -271t277.5 -96q121 0 311 64l-29 -150q-155 -41 -309 -41q-122 0 -215.5 29t-151.5 76.5t-94.5 115t-50.5 136.5t-14 149zM301 635h596 q0 133 -64.5 214t-195.5 81q-137 0 -224.5 -79.5t-111.5 -215.5zM381 1411h223l101 -287h-136z" />
<glyph unicode="&#xe9;" horiz-adv-x="1083" d="M115 483q0 118 33 218.5t95.5 175t159.5 117t218 42.5q206 0 323 -105t117 -310q0 -37 -6 -93h-766v-57q0 -175 101.5 -271t277.5 -96q121 0 311 64l-29 -150q-155 -41 -309 -41q-122 0 -215.5 29t-151.5 76.5t-94.5 115t-50.5 136.5t-14 149zM301 635h596 q0 133 -64.5 214t-195.5 81q-137 0 -224.5 -79.5t-111.5 -215.5zM530 1124l101 287h223l-188 -287h-136z" />
<glyph unicode="&#xea;" horiz-adv-x="1083" d="M115 483q0 118 33 218.5t95.5 175t159.5 117t218 42.5q206 0 323 -105t117 -310q0 -37 -6 -93h-766v-57q0 -175 101.5 -271t277.5 -96q121 0 311 64l-29 -150q-155 -41 -309 -41q-122 0 -215.5 29t-151.5 76.5t-94.5 115t-50.5 136.5t-14 149zM301 635h596 q0 133 -64.5 214t-195.5 81q-137 0 -224.5 -79.5t-111.5 -215.5zM410 1169l104 242h260l117 -242h-117l-131 168l-119 -168h-114z" />
<glyph unicode="&#xeb;" horiz-adv-x="1083" d="M115 483q0 118 33 218.5t95.5 175t159.5 117t218 42.5q206 0 323 -105t117 -310q0 -37 -6 -93h-766v-57q0 -175 101.5 -271t277.5 -96q121 0 311 64l-29 -150q-155 -41 -309 -41q-122 0 -215.5 29t-151.5 76.5t-94.5 115t-50.5 136.5t-14 149zM301 635h596 q0 133 -64.5 214t-195.5 81q-137 0 -224.5 -79.5t-111.5 -215.5zM362 1233l7 156h178l-6 -156h-179zM674 1233l6 156h178l-6 -156h-178z" />
<glyph unicode="&#xec;" horiz-adv-x="464" d="M72 1411h223l100 -287h-135zM141 0q39 485 45 1014h183q-36 -485 -39 -1014h-189z" />
<glyph unicode="&#xed;" horiz-adv-x="464" d="M139 1124l101 287h223l-189 -287h-135zM141 0q39 485 45 1014h183q-36 -485 -39 -1014h-189z" />
<glyph unicode="&#xee;" horiz-adv-x="464" d="M39 1169l104 242h260l117 -242h-117l-131 168l-118 -168h-115zM141 0q39 485 45 1014h183q-36 -485 -39 -1014h-189z" />
<glyph unicode="&#xef;" horiz-adv-x="464" d="M53 1233l6 156h179l-7 -156h-178zM141 0q39 485 45 1014h183q-36 -485 -39 -1014h-189zM365 1233l6 156h178l-6 -156h-178z" />
<glyph unicode="&#xf0;" d="M115 481q0 254 143 404.5t395 150.5q188 0 326 -133h6q-47 209 -201 328l-264 -96l-78 55l254 94q-71 40 -223 86l178 66q111 -31 209 -90l262 98l84 -53l-272 -103q93 -77 157 -238t64 -374q0 -111 -14.5 -205t-37 -161t-57 -121t-68.5 -88t-78.5 -59t-78.5 -37 t-77.5 -19t-67.5 -8t-55 -1q-231 0 -368.5 136.5t-137.5 367.5zM289 475q0 -166 85 -268.5t251 -102.5q94 0 164.5 35t111.5 97t60.5 138t19.5 167q0 174 -85 271t-257 97q-115 0 -195.5 -58t-117.5 -154t-37 -222z" />
<glyph unicode="&#xf1;" horiz-adv-x="1234" d="M141 0q48 644 52 1014h176l-13 -197l4 4q59 116 160.5 165.5t245.5 49.5q84 0 151 -16.5t120.5 -52.5t82.5 -98.5t29 -149.5q0 -29 -14 -327.5t-15 -391.5h-178q33 499 33 657q0 242 -275 242q-129 0 -218 -73t-117 -199q-9 -43 -16.5 -104t-11 -114t-6.5 -126.5t-4 -113 t-2 -102t-1 -67.5h-183zM367 1186q1 33 3 59t10.5 60t22 56t39 38t60.5 16q25 0 55 -12.5t48.5 -24t53.5 -35.5q32 -24 51 -36t44 -23.5t43 -11.5q61 0 61 131h103q-1 -47 -5.5 -80.5t-17.5 -73.5t-42.5 -62t-74.5 -22q-61 0 -159 74q-81 56 -111 65q-15 5 -27 5 q-14 0 -24 -7t-15.5 -15.5t-9.5 -25t-5.5 -25.5t-3 -28t-1.5 -22h-98z" />
<glyph unicode="&#xf2;" d="M115 481q0 254 143 404.5t395 150.5q232 0 367 -133t135 -364q0 -83 -17 -160t-57 -151.5t-99.5 -129t-152.5 -88t-208 -33.5q-231 0 -368.5 136.5t-137.5 367.5zM289 475q0 -166 85 -268.5t251 -102.5q94 0 164.5 35t111.5 97t60.5 138t19.5 167q0 174 -85 271t-257 97 q-115 0 -195.5 -58t-117.5 -154t-37 -222zM440 1411h224l100 -287h-135z" />
<glyph unicode="&#xf3;" d="M115 481q0 254 143 404.5t395 150.5q232 0 367 -133t135 -364q0 -83 -17 -160t-57 -151.5t-99.5 -129t-152.5 -88t-208 -33.5q-231 0 -368.5 136.5t-137.5 367.5zM289 475q0 -166 85 -268.5t251 -102.5q94 0 164.5 35t111.5 97t60.5 138t19.5 167q0 174 -85 271t-257 97 q-115 0 -195.5 -58t-117.5 -154t-37 -222zM508 1124l100 287h223l-188 -287h-135z" />
<glyph unicode="&#xf4;" d="M115 481q0 254 143 404.5t395 150.5q232 0 367 -133t135 -364q0 -83 -17 -160t-57 -151.5t-99.5 -129t-152.5 -88t-208 -33.5q-231 0 -368.5 136.5t-137.5 367.5zM289 475q0 -166 85 -268.5t251 -102.5q94 0 164.5 35t111.5 97t60.5 138t19.5 167q0 174 -85 271t-257 97 q-115 0 -195.5 -58t-117.5 -154t-37 -222zM408 1169l104 242h260l117 -242h-117l-131 168l-119 -168h-114z" />
<glyph unicode="&#xf5;" d="M115 481q0 254 143 404.5t395 150.5q232 0 367 -133t135 -364q0 -83 -17 -160t-57 -151.5t-99.5 -129t-152.5 -88t-208 -33.5q-231 0 -368.5 136.5t-137.5 367.5zM289 475q0 -166 85 -268.5t251 -102.5q94 0 164.5 35t111.5 97t60.5 138t19.5 167q0 174 -85 271t-257 97 q-115 0 -195.5 -58t-117.5 -154t-37 -222zM350 1186q1 33 3 59t10.5 60t22 56t39 38t60.5 16q25 0 55 -12t49.5 -24t53.5 -36q33 -24 51 -36t43 -23.5t43 -11.5q62 0 62 131h102q-1 -30 -2.5 -52t-6 -52.5t-14 -52t-24 -41t-38 -30t-54.5 -10.5q-62 0 -160 74 q-3 2 -16.5 11.5t-17.5 12t-15.5 10t-16.5 10t-14.5 8.5t-15.5 8t-13.5 5t-14.5 4t-13 1q-14 0 -24 -7t-15.5 -15.5t-9.5 -25t-5.5 -25.5t-3 -28t-1.5 -22h-99z" />
<glyph unicode="&#xf6;" d="M115 481q0 254 143 404.5t395 150.5q232 0 367 -133t135 -364q0 -83 -17 -160t-57 -151.5t-99.5 -129t-152.5 -88t-208 -33.5q-231 0 -368.5 136.5t-137.5 367.5zM289 475q0 -166 85 -268.5t251 -102.5q94 0 164.5 35t111.5 97t60.5 138t19.5 167q0 174 -85 271t-257 97 q-115 0 -195.5 -58t-117.5 -154t-37 -222zM422 1233l6 156h178l-6 -156h-178zM733 1233l6 156h179l-7 -156h-178z" />
<glyph unicode="&#xf7;" d="M94 424l6 164h1012l-6 -164h-1012zM485 0l9 186h194l-10 -186h-193zM520 825l8 187h195l-10 -187h-193z" />
<glyph unicode="&#xf8;" d="M115 481q0 254 143 404.5t395 150.5q124 0 211 -37l76 123h150l-111 -184q84 -62 130 -169t46 -230q0 -83 -17 -160.5t-57.5 -151.5t-100.5 -128.5t-152.5 -88t-206.5 -33.5q-111 0 -201 35l-76 -127h-156l113 185q-88 67 -137 173.5t-49 237.5zM289 475q0 -175 94 -276 l416 682q-66 28 -160 28q-115 0 -195.5 -58t-117.5 -154t-37 -222zM481 133q57 -29 144 -29q94 0 164.5 35t111.5 97t60.5 138t19.5 167q0 172 -86 268z" />
<glyph unicode="&#xf9;" horiz-adv-x="1218" d="M141 307q0 63 15.5 321.5t15.5 385.5h178q-2 -52 -18.5 -289.5t-16.5 -366.5q0 -124 69.5 -183.5t188.5 -59.5q159 0 246.5 86t108.5 239q16 120 26 574h176q-45 -660 -47 -1014h-168l7 188l-4 -4q-98 -207 -392 -207q-178 0 -281.5 79t-103.5 251zM449 1411h223 l100 -287h-135z" />
<glyph unicode="&#xfa;" horiz-adv-x="1218" d="M141 307q0 63 15.5 321.5t15.5 385.5h178q-2 -52 -18.5 -289.5t-16.5 -366.5q0 -124 69.5 -183.5t188.5 -59.5q159 0 246.5 86t108.5 239q16 120 26 574h176q-45 -660 -47 -1014h-168l7 188l-4 -4q-98 -207 -392 -207q-178 0 -281.5 79t-103.5 251zM516 1124l100 287h224 l-189 -287h-135z" />
<glyph unicode="&#xfb;" horiz-adv-x="1218" d="M141 307q0 63 15.5 321.5t15.5 385.5h178q-2 -52 -18.5 -289.5t-16.5 -366.5q0 -124 69.5 -183.5t188.5 -59.5q159 0 246.5 86t108.5 239q16 120 26 574h176q-45 -660 -47 -1014h-168l7 188l-4 -4q-98 -207 -392 -207q-178 0 -281.5 79t-103.5 251zM416 1169l104 242h260 l117 -242h-117l-131 168l-119 -168h-114z" />
<glyph unicode="&#xfc;" horiz-adv-x="1218" d="M141 307q0 63 15.5 321.5t15.5 385.5h178q-2 -52 -18.5 -289.5t-16.5 -366.5q0 -124 69.5 -183.5t188.5 -59.5q159 0 246.5 86t108.5 239q16 120 26 574h176q-45 -660 -47 -1014h-168l7 188l-4 -4q-98 -207 -392 -207q-178 0 -281.5 79t-103.5 251zM430 1233l6 156h178 l-6 -156h-178zM741 1233l7 156h178l-6 -156h-179z" />
<glyph unicode="&#xfd;" horiz-adv-x="1003" d="M-43 -317q84 -41 154 -41q44 0 73.5 9t68 40.5t78.5 101t85 180.5l-369 1041h189q40 -158 138 -449.5t134 -425.5h4l365 875h182l-545 -1207q-18 -40 -30.5 -65t-33 -59.5t-39 -55.5t-46.5 -45t-59 -37t-72 -21.5t-89 -8.5q-86 0 -172 22zM408 1124l100 287h223 l-188 -287h-135z" />
<glyph unicode="&#xfe;" horiz-adv-x="1214" d="M135 -451q25 359 52.5 966.5t27.5 850.5h184q-12 -123 -24 -369q166 39 299 39q82 0 152.5 -15t134.5 -50.5t109 -90.5t71 -140t26 -193q0 -115 -29 -215.5t-86 -181t-150.5 -127t-213.5 -46.5q-110 0 -202.5 51t-149.5 150h-4q0 -80 -7.5 -284t-7.5 -345h-182zM346 481 q0 -181 81.5 -279t229.5 -98q87 0 154 39t105.5 104t57.5 140.5t19 157.5q0 174 -90.5 269t-263.5 95q-133 0 -281 -51q-1 -37 -6.5 -163t-5.5 -214z" />
<glyph unicode="&#xff;" horiz-adv-x="1003" d="M-43 -317q84 -41 154 -41q44 0 73.5 9t68 40.5t78.5 101t85 180.5l-369 1041h189q40 -158 138 -449.5t134 -425.5h4l365 875h182l-545 -1207q-18 -40 -30.5 -65t-33 -59.5t-39 -55.5t-46.5 -45t-59 -37t-72 -21.5t-89 -8.5q-86 0 -172 22zM324 1233l6 156h178l-6 -156 h-178zM635 1233l6 156h178l-6 -156h-178z" />
<glyph unicode="&#x152;" horiz-adv-x="2111" d="M94 657q0 116 25.5 220t83 197.5t142 161.5t210.5 108t281 40q25 0 135 -8q92 -10 192 -10h860l-6 -141q-133 8 -303 8h-389l-18 -473h348q125 0 274 10l-6 -147q-70 4 -223 4h-402l-20 -494h319q213 0 373 12l-2 -145h-821q-54 0 -172 -8q-95 -10 -180 -10 q-327 0 -514 178t-187 497zM283 655q0 -248 136 -392t390 -144q57 0 163 6.5t128 7.5l47 1098q-25 1 -74.5 4.5t-82 5.5t-80 4t-91.5 2q-127 0 -230 -46t-169 -127t-101.5 -188t-35.5 -231z" />
<glyph unicode="&#x153;" horiz-adv-x="1929" d="M115 481q0 254 143 404.5t395 150.5q141 0 256 -67t162 -199q57 131 163 197.5t253 66.5q196 0 308 -109t112 -304q0 -19 -4 -93h-758v-61q0 -151 97 -257t249 -106q59 0 123 11t97 21t104 32l-25 -150q-182 -41 -309 -41q-150 0 -266.5 69.5t-161.5 203.5 q-123 -273 -432 -273q-231 0 -368.5 136.5t-137.5 367.5zM289 475q0 -166 85 -268.5t251 -102.5q94 0 164.5 35t111.5 97t60.5 138t19.5 167q0 174 -85 271t-257 97q-115 0 -195.5 -58t-117.5 -154t-37 -222zM1155 635h588q0 145 -64.5 219t-203.5 74q-131 0 -214 -81 t-106 -212z" />
<glyph unicode="&#x178;" horiz-adv-x="1075" d="M31 1366h209q53 -111 167.5 -315.5t163.5 -302.5q42 66 125 192.5t148 229t121 196.5h209l-525 -780l-22 -586h-197q30 374 39 598zM358 1524l7 155h178l-6 -155h-179zM670 1524l6 155h178l-6 -155h-178z" />
<glyph unicode="&#x2c6;" horiz-adv-x="749" d="M180 1169l105 242h260l117 -242h-117l-131 168l-119 -168h-115z" />
<glyph unicode="&#x2dc;" horiz-adv-x="864" d="M180 1186q1 33 3 59t10.5 60t22 56t39 38t60.5 16q25 0 55 -12t49.5 -24t53.5 -36q33 -24 51 -36t43 -23.5t43 -11.5q62 0 62 131h102q-1 -30 -2.5 -52t-6 -52.5t-14 -52t-24 -41t-38 -30t-54.5 -10.5q-62 0 -160 74q-3 2 -16.5 11.5t-17.5 12t-15.5 10t-16.5 10 t-14.5 8.5t-15.5 8t-13.5 5t-14.5 4t-13 1q-14 0 -24 -7t-15.5 -15.5t-9.5 -25t-5.5 -25.5t-3 -28t-1.5 -22h-99z" />
<glyph unicode="&#x2000;" horiz-adv-x="910" />
<glyph unicode="&#x2001;" horiz-adv-x="1821" />
<glyph unicode="&#x2002;" horiz-adv-x="910" />
<glyph unicode="&#x2003;" horiz-adv-x="1821" />
<glyph unicode="&#x2004;" horiz-adv-x="607" />
<glyph unicode="&#x2005;" horiz-adv-x="455" />
<glyph unicode="&#x2006;" horiz-adv-x="303" />
<glyph unicode="&#x2007;" horiz-adv-x="303" />
<glyph unicode="&#x2008;" horiz-adv-x="227" />
<glyph unicode="&#x2009;" horiz-adv-x="364" />
<glyph unicode="&#x200a;" horiz-adv-x="101" />
<glyph unicode="&#x2010;" horiz-adv-x="509" d="M27 444l6 138h504l-7 -138h-503z" />
<glyph unicode="&#x2011;" horiz-adv-x="509" d="M27 444l6 138h504l-7 -138h-503z" />
<glyph unicode="&#x2012;" horiz-adv-x="509" d="M27 444l6 138h504l-7 -138h-503z" />
<glyph unicode="&#x2013;" horiz-adv-x="1024" d="M27 444l6 138h1024l-6 -138h-1024z" />
<glyph unicode="&#x2014;" horiz-adv-x="2048" d="M27 444l6 138h2048l-6 -138h-2048z" />
<glyph unicode="&#x2018;" horiz-adv-x="419" d="M125 1030l199 336h98l-111 -336h-186z" />
<glyph unicode="&#x2019;" horiz-adv-x="419" d="M129 1030l111 336h186l-201 -336h-96z" />
<glyph unicode="&#x201a;" horiz-adv-x="419" d="M55 -188l111 335h186l-200 -335h-97z" />
<glyph unicode="&#x201c;" horiz-adv-x="729" d="M125 1030l199 336h98l-111 -336h-186zM434 1030l199 336h98l-110 -336h-187z" />
<glyph unicode="&#x201d;" horiz-adv-x="729" d="M129 1030l111 336h186l-201 -336h-96zM438 1030l111 336h186l-200 -336h-97z" />
<glyph unicode="&#x201e;" horiz-adv-x="729" d="M55 -188l111 335h186l-200 -335h-97zM365 -188l110 335h187l-201 -335h-96z" />
<glyph unicode="&#x2022;" d="M289 375q20 287 26 614h621q-21 -308 -27 -614h-620z" />
<glyph unicode="&#x2026;" horiz-adv-x="2048" d="M229 0l9 186h194l-10 -186h-193zM911 0l9 186h194l-10 -186h-193zM1593 0l9 186h194l-10 -186h-193z" />
<glyph unicode="&#x202f;" horiz-adv-x="364" />
<glyph unicode="&#x2039;" horiz-adv-x="555" d="M133 512q97 158 201 354h127l-162 -354l131 -350h-123z" />
<glyph unicode="&#x203a;" horiz-adv-x="555" d="M133 162l166 350l-129 354h127q95 -212 166 -354q-24 -40 -96.5 -161t-110.5 -189h-123z" />
<glyph unicode="&#x205f;" horiz-adv-x="455" />
<glyph unicode="&#x20ac;" d="M109 496l6 120h180v29q0 65 6 123h-182l6 121h194q54 240 210.5 370t385.5 130q152 0 267 -37l8 -148q-151 58 -268 58q-163 0 -271.5 -99t-150.5 -274h469l-4 -121h-484q-6 -52 -6 -109v-43h483l-4 -120h-467q27 -187 126 -289.5t274 -102.5q141 0 284 62l-16 -148 q-132 -41 -283 -41q-225 0 -377.5 134.5t-189.5 384.5h-196z" />
<glyph unicode="&#x2122;" horiz-adv-x="1822" d="M57 1255l6 111h670l-6 -111q-215 5 -260 5q-21 -494 -23 -703h-159q20 384 28 703q-41 0 -256 -5zM793 557q28 332 53 809h244q52 -223 182 -649q178 411 268 649h225q-13 -432 -10 -809h-139q8 297 8 672h-4q-128 -311 -274 -672h-179q-25 90 -90 319t-98 353h-4 q-27 -381 -43 -672h-139z" />
<glyph unicode="&#x25fc;" horiz-adv-x="1013" d="M0 0v1014h1014v-1014h-1014z" />
</font>
</defs>
</svg>
